<svg fill="#5B75A6" id="SvgjsSvg1001" width="288" height="288" xmlns="http://www.w3.org/2000/svg" version="1.1" xmlnsXlink="http://www.w3.org/1999/xlink" xmlnsSvgJs="http://svgjs.com/svgjs"><defs id="SvgjsDefs1002"></defs><g id="SvgjsG1008"><svg xmlns="http://www.w3.org/2000/svg" viewBox="0 0 16 16" width="288" height="288"><circle cx="8" cy="8" r="8" fill="#5B75A6" class="color8BC34A svgShape"></circle><path fill="#FFFFFF" d="M11.261 11.761c-.1 0-.2-.029-.287-.091-1.875-1.318-4.994-1.391-7.1-.9a.5.5 0 01-.226-.975c2.315-.536 5.775-.438 7.9 1.057a.5.5 0 01-.287.909zM12.239 9.805a.495.495 0 01-.292-.094C9.773 8.15 7.101 7.762 3.535 8.49a.5.5 0 11-.201-.98c3.857-.787 6.779-.347 9.197 1.388a.5.5 0 01-.292.907zM13.218 7.196a.501.501 0 01-.281-.086c-2.757-1.871-6.948-1.88-9.661-.92a.5.5 0 11-.333-.944C5.894 4.203 10.467 4.225 13.5 6.282a.5.5 0 01-.282.914z" class="color37474F svgShape"></path></svg></g></svg>