<svg id="SvgjsSvg1001" width="288" height="288" xmlns="http://www.w3.org/2000/svg" version="1.1" xmlnsXlink="http://www.w3.org/1999/xlink" xmlns:svgjs="http://svgjs.com/svgjs"><defs id="SvgjsDefs1002"></defs><g id="SvgjsG1008" transform="matrix(1,0,0,1,0,0)"><svg xmlns="http://www.w3.org/2000/svg" viewBox="0 0 24 24" width="288" height="288"><g data-name="Layer 2" fill="#5b75a6" class="color000 svgShape"><g data-name="home" fill="#5b75a6" class="color000 svgShape"><rect width="24" height="24" opacity="0" fill="#5b75a6" class="color000 svgShape"></rect><rect width="4" height="7" x="10" y="14" fill="#5b75a6" class="color000 svgShape"></rect><path d="M20.42 10.18L12.71 2.3a1 1 0 0 0-1.42 0l-7.71 7.89A2 2 0 0 0 3 11.62V20a2 2 0 0 0 1.89 2H8v-9a1 1 0 0 1 1-1h6a1 1 0 0 1 1 1v9h3.11A2 2 0 0 0 21 20v-8.38a2.07 2.07 0 0 0-.58-1.44z" fill="#5b75a6" class="color000 svgShape"></path></g></g></svg></g></svg>