<svg xmlns="http://www.w3.org/2000/svg" version="1.0" viewBox="0 0 1133.858 1133.858"><path fill="#55ab67" d="M306.756,439.658c-4.836,0.896-9.656,1.906-14.514,2.665 c-15.936,2.485-31.899,3.379-47.727-0.569c-4.636-1.157-9.248-2.828-13.514-4.973c-16.283-8.182-23.163-23.478-18.882-41.202 c1.752-7.256,4.993-13.848,9.035-20.069c8.697-13.382,20.096-24.188,32.669-33.802c25.765-19.702,54.505-33.478,85.623-42.34 c3.167-0.902,4.608-2.423,5.553-5.44c4.874-15.551,9.949-31.04,14.97-46.545c0.46-1.422,1.038-2.807,1.509-4.071 c2.367,0.091,2.249,1.547,2.474,2.757c2.223,11.983,4.441,23.965,6.67,35.946c0.618,3.325,1.266,6.645,1.878,9.856 c5.867,1.116,6.319,0.923,8.948-3.937c7.62-14.091,15.223-28.192,22.85-42.28c0.317-0.586,0.808-1.08,1.727-2.282 c0.566,1.489,1.152,2.388,1.23,3.33c0.921,11.016,1.767,22.038,2.628,33.059c0.298,3.814,0.7,7.625,0.83,11.446 c0.077,2.264,1.137,3.087,3.179,3.766c4.151,1.381,8.359,2.804,12.208,4.842c15.758,8.348,22.333,23.463,18.081,40.821 c-2.021,8.25-5.827,15.659-10.692,22.537c-1.831,2.587-3.121,5.316-3.996,8.361c-21.733,75.596-43.513,151.178-65.276,226.765 c-0.454,1.577-0.812,3.181-1.363,5.359c1.995-0.485,3.335-0.754,4.642-1.137c35.795-10.506,72.116-18.716,109.003-24.238 c21.015-3.146,42.099-5.958,63.231-8.155c17.757-1.845,35.621-2.731,53.453-3.775c26.5-1.552,53.039-1.572,79.554-0.691 c18.132,0.602,36.249,1.893,54.351,3.162c23.484,1.646,46.807,4.741,70.002,8.717c42.974,7.366,85.114,17.815,125.398,34.868 c23.731,10.045,46.299,22.138,66.311,38.582c11.916,9.791,22.425,20.866,30.429,34.149c8.851,14.688,13.582,30.501,12.804,47.764 c-0.665,14.762-5.273,28.346-12.573,41.08c-9.878,17.231-23.344,31.335-38.575,43.851c-23.403,19.228-49.582,33.867-77.049,46.343 c-37.279,16.935-76.104,29.3-115.796,39.087c-28.77,7.095-57.829,12.796-87.176,16.801c-21.054,2.873-42.217,5.004-63.366,7.127 c-28.953,2.906-58.027,3.974-87.1,3.759c-23.816-0.177-47.666-0.876-71.428-2.445c-48.729-3.218-96.935-10.214-144.225-22.729 c-34.35-9.09-67.721-20.775-98.855-38.2c-16.909-9.464-32.779-20.386-46.239-34.44c-4.889-5.105-9.161-10.804-13.697-16.246 c-0.906-1.088-1.636-2.339-2.622-3.343c-12.639-12.866-19.734-28.576-23.519-45.947c-3.474-15.947-3.723-32.093-2.292-48.266 c3.113-35.158,13.664-68.309,28.086-100.266c30.413-67.391,73.659-125.497,128.023-175.453c1.197-1.101,2.361-2.238,3.54-3.358 C307.031,440.058,306.894,439.857,306.756,439.658z"/><path fill="#207b3b" d="M173.504,813.281c2.816-0.59,5.261-1.392,7.75-1.57 c9.613-0.688,19.233-1.456,28.863-1.675c13.793-0.315,27.432-1.987,41.021-4.079c23.532-3.622,46.969-7.795,70.157-13.249 c3.295-0.775,6.577-1.76,9.713-3.026c16.553-6.684,33.108-13.368,49.563-20.288c16.323-6.864,32.667-13.708,48.743-21.123 c13.118-6.05,25.85-12.938,38.766-19.427c1.251-0.628,2.641-1.594,3.89-1.49c3.016,0.25,5.088-1.329,7.343-2.806 c4.507-2.952,9.088-5.791,13.606-8.726c1.3-0.845,2.619-1.732,3.698-2.827c2.211-2.245,4.882-2.867,7.804-2.352 c4.599,0.811,9.189,1.712,13.733,2.782c4.668,1.098,9.244,2.601,13.929,3.603c1.715,0.367,3.753,0.162,5.432-0.407 c4.949-1.675,9.866-3.492,14.652-5.584c3.625-1.584,7.002-2.953,10.907-0.759c0.837,0.471,2.484,0.028,3.525-0.475 c5.737-2.771,11.406-5.686,17.09-8.566c0.758-0.383,1.463-0.867,2.211-1.273c5.225-2.828,7.728-2.156,11.028,3.149 c-2.009,2.876-4.087,5.851-6.597,9.445c5.553,0.308,10.406,0.576,15.856,0.878c1.148-4.339,2.292-8.663,3.627-13.709 c3.554-0.786,7.64-1.746,11.75-2.592c18.764-3.863,37.654-6.879,56.833-7.506c4.341-0.142,8.757,0.428,13.057,1.157 c3.374,0.573,5.708,2.951,7.269,6.034c3.907,7.716-0.738,15.407-9.38,15.388c-2.12-0.005-4.251-0.253-6.354-0.548 c-11.798-1.646-23.499-0.486-35.161,1.272c-6.292,0.949-12.539,2.2-19.79,3.49c1.633,0.766,2.4,1.198,3.218,1.495 c1.73,0.628,3.54,1.06,5.221,1.793c5.201,2.27,7.517,7.488,5.706,12.61c-1.711,4.837-6.657,7.35-12.044,6.14 c-6.214-1.396-12.42-2.833-18.655-4.128c-1.886-0.393-3.859-0.376-6.265-0.589c1.192,4.066,2.499,7.438,4.584,10.498 c1.243,1.825,1.941,3.762,1.142,6.009c-1.063,2.988-3.784,4.599-7.091,3.999c-1.229-0.223-2.41-0.71-4.051-1.212 c0.341,4.091,0.543,7.885,1,11.649c0.701,5.769,1.549,11.52,2.392,17.271c0.325,2.221,0.53,4.457,2.209,6.293 c0.692,0.758,0.958,2.036,1.126,3.122c2.141,13.769,6.059,27.087,10.15,40.363c0.292,0.945,0.64,1.89,1.095,2.765 c14.28,27.474,31.004,53.164,54.219,74.102c0.625,0.564,1.288,1.086,2.108,1.774c1.01-0.477,1.97-1.047,3.004-1.394 c1.737-0.578,3.493-1.211,5.292-1.462c2.731-0.382,5.059,0.614,6.604,2.969c1.629,2.483,1.536,5.086,0.158,7.654 c-0.66,1.229-1.415,2.405-2.368,4.013c-6.091,0.756-12.532,1.785-19.013,2.319c-24.444,2.015-48.873,4.398-73.359,5.622 c-20.666,1.033-41.403,0.843-62.108,0.822c-11.906-0.012-23.835-0.432-35.712-1.259c-19.654-1.37-39.298-2.986-58.904-4.927 c-23.711-2.347-47.199-6.291-70.515-11.194c-38.519-8.1-76.146-19.035-111.874-35.833c-19.575-9.203-38.125-20.094-54.704-34.12 c-9.685-8.193-18.33-17.344-25.564-27.792C174.57,815.117,174.176,814.387,173.504,813.281z M375.841,836.223 c3.48,2.51,2.731,5.633,2.41,8.975c-0.488,5.051-0.285,10.175-0.276,15.267c0.003,1.978,0.425,3.958,0.389,5.933 c-0.058,3.122-1.815,5.246-4.559,5.875c-2.433,0.559-5.043-0.541-6.336-3.189c-0.909-1.861-1.603-4.003-1.693-6.051 c-0.206-4.666,0.039-9.351,0.049-14.027c0.002-0.86-0.242-1.722-0.444-3.058c-13.374,12.478-24.172,26.192-33.399,41.706 c1.71,0.595,3.002,1.086,4.319,1.498c28.153,8.795,56.817,15.753,85.63,21.793c30.494,6.393,61.343,11.139,92.412,14.045 c17.234,1.612,34.537,2.701,51.829,1.908c19.963-0.914,39.891-2.589,59.829-3.997c2.713-0.192,5.4-0.755,8.452-1.197 c-0.657-1.208-0.944-1.847-1.327-2.423c-10.233-15.376-17.605-31.989-21.796-50.007c-4.491-19.306-10.144-38.335-12.036-58.224 c-1.628-17.116-2.681-34.221-1.943-51.385c0.31-7.201,1.501-14.363,2.324-21.539c0.174-1.515,0.496-3.013,0.772-4.655 c-1.032-0.171-1.714-0.359-2.403-0.388c-12.928-0.556-25.796,0.093-38.591,2.037c-2.518,0.383-5.159,0.603-7.471,1.559 c-8.504,3.517-16.992,7.105-25.308,11.043c-20.743,9.821-41.39,19.844-62.07,29.794c-30.306,14.583-58.411,32.559-83.961,54.474 C379.158,833.265,377.707,834.578,375.841,836.223z"/><path fill="#207b3b" d="M230.813,524.595c22.414-30.587,47.669-58.634,76.671-84.619 c-2.235,0.114-3.414,0.174-4.593,0.234c-0.031-0.17-0.063-0.34-0.093-0.51c5.061-1.468,10.134-2.896,15.181-4.414 c15.487-4.656,30.696-10.074,45.277-17.109c2.509-1.21,4.95-2.815,6.985-4.709c9.886-9.2,18.779-19.288,26.776-30.194 c4.95-6.75,8.315-14.134,10.378-22.186c0.81-3.156,1.665-6.302,2.552-9.438c4.46-15.763,3.444-31.404-1.023-46.968 c-0.391-1.361-1.017-2.667-1.292-4.046c-0.705-3.548-2.087-6.06-6.17-6.9c-3.372-0.694-4.815-3.722-5.208-7.062 c-0.562-4.769,0.192-9.437,2.173-13.711c2.497-5.387,5.518-10.532,8.343-15.765c0.166-0.306,0.602-0.465,1.342-1.008 c0.635,7.96,1.242,15.531,1.84,23.102c0.312,3.956,0.731,7.908,0.862,11.871c0.075,2.284,1.16,3.068,3.185,3.746 c4.149,1.389,8.357,2.811,12.205,4.853c15.73,8.353,22.351,23.498,18.116,40.829c-2.048,8.385-6.07,15.825-10.833,22.953 c-1.542,2.309-2.864,4.906-3.645,7.561c-6.156,20.938-12.202,41.909-18.15,62.907c-0.789,2.786-2.089,4.099-4.991,4.809 c-49.095,12.011-94.3,32.97-136.759,60.074c-8.474,5.409-16.401,11.67-24.654,17.434c-4.505,3.146-9.163,6.072-13.751,9.097 C231.295,525.149,231.054,524.872,230.813,524.595z"/><path fill="#207b3b" d="M884.768,872.324c0.213-1.083,0.231-1.781,0.488-2.377 c0.873-2.024,1.175-3.652-0.383-5.826c-2.406-3.359-0.958-7.666,2.96-9.045c2.635-0.928,3.834-2.417,4.572-4.923 c4.566-15.495,9.234-30.959,13.85-46.44c0.315-1.059,0.479-2.164,0.866-3.947c-1.245,0.901-1.965,1.407-2.668,1.937 c-1.47,1.106-2.827,2.408-4.416,3.301c-3.615,2.031-7.713,1.435-10.624-1.317c-2.866-2.711-3.738-6.836-1.877-10.529 c1.331-2.641,3.076-5.074,4.737-7.765c-0.672-0.518-1.357-0.985-1.973-1.529c-2.531-2.238-3.346-4.902-2.072-8.017 c0.738-1.804,1.929-3.443,3.045-5.068c4.655-6.776,9.521-13.413,13.986-20.311c2.833-4.375,5.022-9.078,6.764-14.108 c2.164-6.25,5.132-12.326,8.52-18.021c4.849-8.151,6.977-16.917,7.933-26.173c2.445-23.688,4.988-47.368,7.498-71.05 c0.071-0.678,0.206-1.348,0.35-2.271c0.98,0.342,1.813,0.507,2.521,0.899c10.28,5.708,20.524,11.481,30.827,17.145 c2.144,1.179,3.036,2.694,2.78,5.127c-0.933,8.873-1.777,17.756-2.658,26.635c-0.069,0.696-0.171,1.388-0.165,1.335 c2.319,2.366,4.413,4.164,6.02,6.324c0.587,0.789,0.291,2.527-0.077,3.68c-1.067,3.341-3.607,4.322-9.071,3.623 c-1.23,3.334-2.484,6.734-3.858,10.458c3.819-0.164,7.301-0.114,8.524,4.13c0.711,2.468-0.441,5.038-2.873,6.484 c-3.191,1.899-5.925,1.446-10.066-1.983c-2.283,4.28-4.987,8.289-6.663,12.688c-5.613,14.739-12.449,28.888-19.625,42.9 c-1.467,2.864-2.674,5.972-3.356,9.107c-5.737,26.329-12.532,52.369-20.778,78.026c-0.294,0.912-0.478,1.857-0.858,3.367 c1.57-0.491,2.737-0.762,3.832-1.21c28.186-11.536,53.746-27.447,77.112-46.866c7.181-5.967,13.871-12.562,20.452-19.202 c3.57-3.602,6.564-7.809,9.578-11.919c2.519-3.435,4.451-7.206,5.406-11.457c0.587-2.614,1.671-5.081,5.567-5.601 c-1.183,3.313-2.107,6.231-3.257,9.059c-5.019,12.347-12.303,23.29-20.964,33.346c-15.337,17.808-33.774,31.887-53.568,44.303 c-12.985,8.145-26.473,15.387-40.37,21.844c-7.43,3.452-14.972,6.664-22.473,9.962C887.269,871.488,886.219,871.8,884.768,872.324 z"/><path fill="#207b3b" d="M400.522,353.203c-0.063,15.447-10.242,28.181-24.94,30.417 c-10.869,1.654-19.704-2.595-26.433-11.127c-2.438-3.092-1.979-6.96,0.642-9.185c2.624-2.227,6.29-1.869,9.148,0.91 c0.405,0.393,0.75,0.849,1.143,1.256c8.747,9.077,21.934,6.357,26.189-5.544c2.697-7.544,1.401-14.537-4.068-20.528 c-2.673-2.928-6.064-4.496-10.081-4.841c-5.248-0.451-7.979-3.146-7.59-7.199c0.397-4.137,4.125-6.482,9.217-5.798 C389.509,323.675,400.59,336.769,400.522,353.203z"/><path fill="#207b3b" d="M1008.489,712.037c-1.406,9.394-3.467,19.238-8.848,27.965 c-5.609,9.096-12.569,17.111-20.762,23.979c-2.022,1.695-4.432,3.051-6.861,4.106c-3.096,1.345-5.875,0.41-7.505-1.991 c-1.729-2.548-1.296-5.481,1.229-8.049c0.593-0.603,1.251-1.152,1.929-1.66c8.145-6.103,14.513-13.855,20.417-22.027 c4.577-6.334,6.636-13.692,8.4-21.155c0.292-1.238,0.496-2.504,0.877-3.714c1.101-3.499,3.487-5.147,6.575-4.635 C1007.01,705.366,1008.698,707.79,1008.489,712.037z"/><path fill="#207b3b" d="M382.743,533.571c-0.962,4.526-1.951,7.97-4.649,11.006 c-9.977,11.23-19.67,22.713-29.642,33.948c-2.014,2.27-4.586,4.221-7.247,5.691c-2.943,1.627-6.102,0.746-8.122-1.553 c-2.108-2.4-2.271-5.154-0.99-7.935c0.704-1.526,1.672-2.978,2.744-4.279c5.493-6.675,11.041-13.306,16.619-19.911 c0.808-0.957,1.771-1.913,2.864-2.479C363.492,543.32,372.71,538.67,382.743,533.571z"/><path fill="#207b3b" d="M362.328,243.002c3.169,8.041,4.064,16.313,5.698,24.416 c1.648,8.173,3.049,16.396,4.566,24.641c1.1,0.203,1.979,0.365,3.065,0.565c-3.793,1.904-19.121,4.359-32.056,5.15 c3.031-9.413,5.951-18.62,8.962-27.796C355.527,260.952,358.172,251.807,362.328,243.002z"/><path fill="#207b3b" d="M250.287,402.965c0.356,0.041,1.363,0.041,2.308,0.282 c2.497,0.637,4.366,2.047,4.844,4.729c0.499,2.8-0.461,5.386-2.973,6.437c-3.19,1.334-6.673,2.189-10.11,2.642 c-2.374,0.313-4.321-1.339-5.196-3.633c-0.918-2.409-0.669-4.866,1.37-6.62C243.119,404.574,246.021,402.829,250.287,402.965z"/><path fill="#207b3b" d="M251.389,526.462c3.025-0.114,5.737,2.458,5.808,5.507 c0.068,2.898-2.259,5.416-5.201,5.626c-3.111,0.223-5.831-2.146-6.005-5.23C245.821,529.342,248.349,526.577,251.389,526.462z"/><path fill="#207b3b" d="M278.978,408.771c0.002,3.119-2.589,5.71-5.633,5.632 c-2.863-0.075-5.346-2.555-5.444-5.438c-0.103-3.05,2.44-5.775,5.463-5.853C276.381,403.034,278.976,405.651,278.978,408.771z"/><path fill="#207b3b" d="M428.224,873.141c-6.347-0.363-12.783-0.202-19.014-1.254 c-4.938-0.835-9.705-2.961-14.398-4.88c-3.523-1.441-4.741-4.557-3.56-7.564c1.154-2.938,4.098-4.088,7.786-3.04 c0.136,0.04,0.277,0.071,0.403,0.131c8.22,3.89,16.933,3.98,25.771,3.548c5.935-0.29,11.89-0.212,17.835-0.197 c1.679,0.004,3.421,0.143,5.02,0.611c2.874,0.844,4.421,2.927,4.508,5.507c0.09,2.665-1.229,4.753-4.09,5.802 c-1.555,0.57-3.293,0.837-4.957,0.873c-5.094,0.109-10.191,0.04-15.288,0.04C428.235,872.859,428.229,873,428.224,873.141z"/><path fill="#207b3b" d="M558.382,867.759c-0.81,3.644-1.89,8.46-2.949,13.282 c-0.665,3.031-1.235,6.085-1.959,9.102c-0.873,3.629-3.033,5.529-6.028,5.486c-3.105-0.045-5.621-2.31-5.914-6.053 c-0.181-2.322,0.32-4.764,0.875-7.064c1.421-5.894,3.115-11.722,4.56-17.61c0.914-3.725,3.244-5.91,6.293-5.53 C556.435,859.77,558.593,862.759,558.382,867.759z"/><path fill="#207b3b" d="M593.619,887.335c-4.988-0.319-9.67-1.76-13.829-4.623 c-1.978-1.363-3.046-3.384-2.568-5.866c0.434-2.252,1.785-3.953,4.079-4.37c1.299-0.236,2.872-0.114,4.062,0.422 c3.533,1.593,7.125,2.495,11.03,2.551c4.127,0.059,6.583,2.34,6.631,5.625c0.046,3.188-2.448,5.583-6.396,6.086 C595.651,887.285,594.658,887.279,593.619,887.335z"/><path fill="#207b3b" d="M522.621,880.739c-4.437-0.817-8.916-1.456-13.295-2.511 c-3.377-0.813-5.145-3.716-4.578-6.625c0.613-3.143,3.364-4.995,7.052-4.584c4.208,0.47,8.399,1.08,12.6,1.6 c4.396,0.544,6.86,2.792,6.708,6.172c-0.152,3.369-2.827,5.49-7.169,5.678c-0.422,0.018-0.847,0.002-1.271,0.002 C522.651,880.56,522.636,880.649,522.621,880.739z"/><path fill="#207b3b" d="M480.601,878.592c-1.553,0-3.109,0.051-4.66-0.012 c-2.793-0.112-4.762-1.557-5.443-3.902c-0.741-2.553,0.2-5.143,2.583-6.602c0.939-0.576,2.082-1.159,3.13-1.155 c3.518,0.013,7.079,0.01,10.543,0.543c3.467,0.533,5.115,2.837,4.942,5.828c-0.167,2.89-2.249,4.981-5.592,5.332 c-1.815,0.19-3.668,0.034-5.503,0.034C480.601,878.636,480.601,878.614,480.601,878.592z"/><path fill="#ebeff0" d="M802.849,461.311c-1.157-0.755-2.053-0.675-2.857-0.544 c-11.238,1.832-21.501-2.112-31.683-5.736c-8.256-2.938-16.1-6.914-23.204-12.25c-9.524-7.157-15.995-16.201-18.676-27.927 c-1.198-5.242-1.747-10.556-2.596-15.829c-1.174-7.295,0.387-14.376,0.255-21.554c-0.042-2.305-0.662-3.827-2.563-5.374 c-5.021-4.084-6.944-9.906-2.944-15.231c1.276-1.699,2.481-3.424,4.015-4.927c4.253-4.172,8.331-8.525,12.65-12.626 c4.84-4.593,8.152-10.176,10.669-16.21c4.609-11.052,10.168-21.564,18.256-30.43c6.956-7.626,14.216-14.998,22.784-20.955 c5.807-4.036,11.306-8.495,17.822-11.439c4.609-2.083,6.072-1.92,9.794,1.523c1.134,1.051,2.416,1.878,3.936,2.429 c7.929,2.877,16.031,2.974,24.265,1.859c4.577-0.62,9.032-1.631,13.833-0.457c10.169,2.488,16.178,8.865,18.9,18.625 c1.595,5.717,1.902,11.67,2.712,17.533c0.977,7.066,0.222,14.161,0.851,21.188c0.575,6.43,0.94,12.966,3.335,19.112 c1.207,3.096,3.024,5.766,5.521,7.941c1.986,1.731,4.122,2.299,6.606,0.805c4.05-2.434,8.533-3.853,13.118-4.755 c7.323-1.441,14.881,1.835,16.846,9.834c0.418,1.705,0.469,3.311,0.111,5.016c-1.557,7.436-5.358,13.602-10.46,19.108 c-6.112,6.596-13.132,11.942-21.528,15.829c0.812,1.7,1.49,3.236,2.262,4.725c8.749,16.879,15.958,34.409,21.934,52.441 c6.228,18.795,11.026,37.981,14.765,57.411c2.075,10.787,3.77,21.667,5.101,32.57c0.802,6.565,1.542,13.16,2.016,19.784 c0.634,8.873,1.076,17.761,1.742,26.621c1.288,17.146,0.676,34.286,0.476,51.412c-0.105,9-0.866,18.046-1.578,27.052 c-0.666,8.431-1.366,16.879-2.629,25.233c-1.031,6.823-1.94,13.67-2.976,20.491c-1.738,11.442-3.892,22.793-6.235,34.113 c-2.664,12.865-5.833,25.613-9.516,38.223c-2.299,7.87-4.708,15.717-7.352,23.476c-5.616,16.482-12.104,32.604-19.42,48.43 c-8.943,19.347-19.634,37.632-31.718,55.131c-5.059,7.325-10.726,14.189-16.486,20.994c-5.239,6.189-10.988,11.852-16.823,17.416 c-8.194,7.814-17.062,14.837-26.771,20.733c-0.722,0.438-1.49,0.86-2.079,1.449c-2.383,2.38-5.361,2.613-8.329,2.006 c-12.912-2.643-25.443-6.521-37.592-11.68c-14.793-6.283-28.664-14.196-41.789-23.416c-8.557-6.011-16.737-12.501-24.638-19.386 c-6.645-5.79-12.831-12.014-18.918-18.331c-12.488-12.961-23.468-27.133-33.292-42.235 c-13.755-21.146-24.567-43.659-31.652-67.865c-3.087-10.553-5.478-21.292-6.612-32.307c-0.665-6.462-1.479-12.964-1.32-19.395 c0.137-5.59,0.099-11.298,1.242-16.854c0.412-1.998-0.287-2.608-2.313-3c-5.776-1.118-11.576-0.613-17.367-0.717 c-4.113-0.072-8.228-0.086-12.341-0.015c-8.811,0.151-17.412-1.604-26.05-2.903c-7.521-1.131-14.983-2.636-22.544-3.537 c-1.236-0.147-2.24,0.248-3.285,0.563c-7.604,2.294-14.961,5.257-22.075,8.765c-13.736,6.773-27.442,13.607-41.084,20.564 c-8.451,4.31-16.643,9.139-25.161,13.307c-24.305,11.889-49.016,22.817-75.033,30.523c-7.46,2.209-15.15,3.346-22.713,5.07 c-16.093,3.667-32.415,6.176-48.518,9.809c-10.582,2.388-21.282,4.257-32.071,5.586c-7.836,0.965-15.69,1.718-23.538,2.557 c-7.303,0.78-14.629,1.149-21.936,1.751c-10.432,0.861-20.874,1.154-31.307,1.75c-14.693,0.836-29.365,1.614-44.085,1.577 c-3.232-0.009-5.588-1.081-7.917-3.269c-11.509-10.815-21.069-23.263-30.308-35.963c-11.25-15.466-21.224-31.737-30.358-48.548 c-5.557-10.229-10.857-20.511-14.158-31.736c-2.314-7.871-4.145-15.81-4.981-23.992c-0.272-2.663-0.695-5.304-0.842-7.994 c-0.144-2.641-1.273-4.763-3.811-6.157c-4.112-2.26-6.796-5.907-8.839-10.053c-2.702-5.481-2.815-12.134,2.551-16.66 c1.403-1.184,1.612-2.147,0.541-3.93c-2.206-3.67-3.436-7.742-3.121-12.144c0.334-4.679,2.042-8.572,6.54-10.575 c2.132-0.949,2.833-2.225,2.871-4.545c0.104-6.33,3.435-11.013,8.563-14.323c5.132-3.313,11.845-1.661,15.711,3.71 c3.152,4.379,5.57,9.185,7.322,14.295c5.437,15.859,4.031,14.838,17.948,28.606c5.042,4.988,9.997,10.065,15.059,15.033 c6.896,6.769,12.511,14.575,18.226,22.304c1.261,1.705,2.69,3.318,3.729,5.15c1.271,2.244,3.046,2.333,5.079,1.633 c3.209-1.105,6.506-2.067,9.539-3.552c8.907-4.364,17.901-8.562,26.53-13.481c4.182-2.384,8.434-4.651,12.711-6.858 c23.169-11.96,45.4-25.471,67.086-39.942c18.699-12.479,37.566-24.717,56.598-36.682c12.218-7.681,24.734-14.888,37.74-21.236 c14.009-6.838,27.823-14.077,41.681-21.221c3.013-1.554,5.799-3.542,8.792-5.139c1.467-0.783,1.884-2.055,2.269-3.389 c2.941-10.181,5.839-20.375,8.757-30.563c3.425-11.954,6.858-23.905,10.284-35.859c1.051-3.667,2.044-7.35,3.14-11.003 c1.194-3.98,1.256-4.244,5.222-3.92c6.748,0.55,13.536,0.5,20.254,1.513c3.341,0.503,6.764,0.492,10.124,0.708 c7.247,0.463,13.777,3.146,20.42,5.452c7.333,2.543,14.478,5.505,21.178,9.644c5.669,3.501,10.423,7.709,14.357,12.993 c4.303,5.78,9.36,10.951,13.528,16.853c1.722,2.438,3.338,4.934,4.695,7.555c7.171,13.844,14.386,27.67,21.259,41.662 c4.804,9.779,9.125,19.798,13.564,29.753c0.917,2.053,1.513,4.271,2.057,6.462c0.586,2.367,1.361,4.485,3.131,6.344 c1.655,1.739,2.175,4.226,2.869,6.522c0.326,1.082,0.588,2.184,0.94,3.257c0.606,1.848,1.604,2.065,3.163,0.87 c2.689-2.064,5.448-4.039,8.221-5.992c1.191-0.839,1.069-1.705,0.587-2.92c-6.471-16.301-12.953-32.598-19.285-48.954 c-1.993-5.143-3.757-10.396-5.221-15.711c-0.951-3.448-2.174-6.713-3.804-9.869c-2.105-4.079-2.872-8.451-3.459-13.005 c-0.876-6.794-0.463-13.57-0.733-20.349c-0.25-6.314,0.722-12.553,2.854-18.328c3.415-9.245,9.549-14.893,19.457-15.134 c5.715-0.14,11.455,1.58,16.883,3.667c9.437,3.629,18.224,8.437,26.074,14.87c0.653,0.536,1.481,0.868,2.099,1.436 c1.181,1.086,2.047,0.856,3.286-0.106c7.341-5.697,15.67-7.42,24.748-5.785c1.954,0.353,3.94-0.029,5.905,0.541 c6.138,1.778,8.548,6.449,6.299,12.477c-0.149,0.398-0.26,0.859-0.535,1.153c-3.454,3.681-2.052,6.44,0.953,9.873 c9.863,11.267,18.255,23.73,27.978,35.131c1.831,2.146,3.424,4.492,5.181,6.704c1.904,2.398,2.256,2.443,4.951,1.258 c18.03-7.924,36.574-14.354,55.591-19.496c13.511-3.652,26.865-7.864,40.167-12.226c1.611-0.529,3.113-1.426,4.744-1.841 c6.383-1.62,9.607-6.19,11.373-12.065C800.714,473.008,802.284,467.296,802.849,461.311z"/><path fill="#ebeff0" d="M297.175,448.314c0.021,1.806-1.196,2.478-2.107,3.255 c-7.337,6.262-14.086,13.096-20.391,20.399c-3.325,3.851-6.945,7.445-10.374,11.214c-12.479,13.713-23.862,28.289-34.879,43.17 c-11.037,14.908-20.942,30.562-30.449,46.472c-4,6.695-3.969,6.689-11.275,4.41c-16.331-5.094-32.708-10.043-48.99-15.291 c-11.896-3.834-23.111-9.037-33.205-16.66c-10.741-8.112-18.15-18.421-22.607-31.021c-2.692-7.61-4.505-15.461-6.592-23.238 c-2.791-10.407-6.743-20.401-10.75-30.379c-6.165-15.351-13.805-30.094-18.79-45.94c-1.413-4.493-2.316-9.075-2.665-13.671 c-0.271-3.576,0.29-7.354,1.597-10.808c1.609-4.25,5.716-6.256,10.238-5.398c2.248,0.427,4.384,1.014,6.262,2.418 c1.188,0.887,2.044,0.731,3.096-0.669c3.561-4.737,8.862-4.517,12.703,0.142c2.75,3.335,4.566,7.172,6.233,11.063 c0.797,1.859,1.688,2.509,3.713,2.543c6.223,0.106,8.594,4.052,6.237,10.035c-1.161,2.948-1.201,3.007,1.385,4.744 c5.166,3.469,10.412,6.818,15.564,10.305c7.182,4.862,13.127,11.171,19.485,16.983c3.217,2.941,6.542,4.995,10.991,5.817 c7.672,1.417,15.331,2.313,23.126,2.304c32.057-0.034,64.117,0.256,96.167-0.213c8.129-0.119,16.375-0.05,24.513-1.334 C289.247,448.362,293.213,449.05,297.175,448.314z"/><path fill="#002600" d="M883.177,360.89c-18.451-4.835-36.497-9.565-54.673-14.33 c-0.927,1.799-1.68,3.301-2.468,4.785c-5.14,9.68-11.839,18.016-21.16,23.972c-9.496,6.069-19.696,8.566-30.825,5.339 c-8.538-2.476-15.028-7.78-20.076-14.941c-5.079-7.203-7.955-15.297-9.394-23.944c-0.3-1.805-0.604-3.61-0.986-5.89 c-0.872,0.757-1.562,1.159-1.983,1.751c-4.755,6.674-10.842,11.938-17.419,16.718c-6.03,4.382-5.597,10.824,0.91,14.614 c0.611,0.356,1.288,0.602,1.89,0.971c3.088,1.885,4.169,4.828,3.14,8.29c-7.546,25.393-0.54,46.791,18.504,64.359 c14.319,13.209,31.719,19.406,51.144,20.061c16.469,0.556,31.762-3.304,45.746-12.087c7.784-4.889,14.31-11.12,19.552-18.685 c0.644-0.929,1.182-2.152,2.089-2.616c0.966-0.496,2.638-0.725,3.4-0.198c0.754,0.521,1.2,2.224,0.981,3.237 c-0.281,1.308-1.274,2.502-2.099,3.647c-11.344,15.77-26.713,25.711-45.452,30.089c-28.862,6.743-55.28,1.242-78.136-17.966 c-15.116-12.703-23.659-29.123-24.574-49.125c-0.308-6.706,0.506-13.302,2.311-19.772c0.301-1.077,0.555-2.166,0.876-3.427 c-3.122-2.25-6.707-3.871-8.425-7.563c-1.587-3.411-2.729-6.842-1.759-10.66c1.006-3.961,4.087-6.292,7.144-8.803 c-7.488-8.705-7.391-18.603-4.61-28.668c3.267-11.823,9.934-21.554,19.613-29.149c3.326-2.608,3.792-2.58,7.552-0.346 c26.569,15.791,53.126,31.603,79.739,47.319c2.399,1.417,5.089,2.506,7.783,3.232c17.509,4.715,35.055,9.292,52.593,13.899 c1.329,0.35,2.688,0.588,4.455,0.968c-2.634-2.229-5.096-3.904-7.05-6.043c-5.054-5.533-7.377-12.342-8.36-19.649 c-1.012-7.509-0.244-14.999,0.402-22.485c0.391-4.515,1.04-9.03,1.083-13.55c0.133-14.015-8.882-23.863-22.903-25.193 c-2.527-0.239-5.096-0.089-7.644-0.061c-6.938,0.077-13.901,0.819-20.772-0.756c-5.107-1.17-9.557-3.55-13.038-7.526 c-2.631-3.006-2.429-4.908,1.08-6.71c4.273-2.195,8.635-4.311,13.15-5.927c17.846-6.392,36.26-7.444,54.957-5.322 c22.718,2.578,42.872,11.359,60.81,25.353c7.318,5.708,13.405,12.667,18.785,20.186c5.217,7.291,8.04,15.286,5.771,24.42 c-0.133,0.536-0.077,1.119-0.104,1.604c1.854,2.404,3.675,1.922,5.935,0.566c10.704-6.425,21.728-6.567,32.904-1.234 c15.785,7.529,23.124,31.98,9.729,46.873c-0.557,0.619-1.05,1.295-1.94,2.401c1.498,0.672,2.722,1.236,3.957,1.774 c15.906,6.925,27.411,18.637,35.124,33.847c10.881,21.455,0.603,46.102-17.776,56.29c-8.852,4.906-18.229,6.418-27.922,3.704 c-5.123-1.434-10.432-3.354-14.695-6.399c-4.645-3.319-8.623-4.094-13.748-0.847c0.722,1.12,1.509,2.384,2.337,3.62 c3.52,5.263,6.162,10.883,6.519,17.302c0.733,13.183-4.984,23.108-16.112,29.715c-4.065,2.415-8.815,3.862-13.424,5.129 c-6.014,1.654-11.79,0.216-17.218-2.711c-1.458-0.786-2.963-1.481-4.933-2.46c0.194,1.345,0.259,2.152,0.432,2.935 c4.318,19.67,7.869,39.476,10.203,59.482c1.908,16.362,2.8,32.78,1.875,49.255c-0.135,2.4-0.449,4.801-0.842,7.176 c-0.282,1.708-1.321,2.884-3.216,2.7c-1.953-0.19-2.59-1.598-2.474-3.334c0.217-3.252,0.639-6.492,0.813-9.746 c0.764-14.348-0.198-28.643-1.804-42.883c-4.061-36.011-11.652-71.307-22.073-105.996c-5.675-18.888-12.299-37.432-21.025-55.166 c-0.563-1.144-1.224-2.251-1.675-3.438c-1.173-3.084-2.918-4.795-6.648-4.431c-3.509,0.342-6.645-1.249-9.098-3.857 c-1.145-1.217-1.77-2.675-0.512-4.189c1.223-1.471,2.804-1.468,4.135-0.298c3.808,3.346,8.125,3.287,12.392,1.598 c12.671-5.016,21.05-14.044,24.564-27.337c0.355-1.346,0.486-2.814,0.397-4.205c-0.336-5.21-3.341-7.922-8.573-7.945 c-3.965-0.018-7.625,1.223-10.81,3.38c-3.497,2.37-6.675,5.214-9.964,7.886c-0.654,0.532-1.073,1.488-1.79,1.776 c-1.089,0.438-2.493,0.878-3.481,0.525c-0.719-0.256-1.071-1.762-1.406-2.771C882.729,362.537,883.013,361.929,883.177,360.89z M897.566,397.072c0.318,0.822,0.522,1.473,0.813,2.082c2.562,5.37,5.338,10.648,7.677,16.113 c9.891,23.118,17.31,47.067,23.406,71.428c0.97,3.871,2.823,6.748,6.028,8.833c2.367,1.542,4.816,2.979,7.33,4.266 c2.94,1.505,6.073,2.383,9.441,1.849c6.259-0.99,12.117-3.063,17.124-7.013c4.942-3.901,8.193-8.978,9.457-15.205 c2.009-9.9-4.08-23.985-12.677-29.309c-1.317-0.817-2.838-1.306-4.154-2.123c-2.027-1.258-2.71-3.108-1.776-4.603 c1.12-1.792,2.87-1.675,4.544-1.127c1.196,0.391,2.236,1.237,3.419,1.688c3.351,1.275,6.661,1.32,10.454-0.333 c-1.688-1.829-2.936-3.152-4.152-4.503c-3.357-3.726-6.266-7.765-7.44-12.719c-1.441-6.084,2.805-10.084,8.795-8.467 c7.903,2.133,14.652,10.919,14.38,19.053c-0.077,2.343-0.868,4.662-1.337,7.015c7.091,6.626,19.347,10.687,28.516,9.644 c19.97-2.27,34.973-22.934,30.644-43.874c-0.625-3.022-1.564-6.111-3.031-8.804c-8.121-14.92-19.414-26.399-35.776-32.265 c-2.844-1.02-5.36-1.214-8.104,0.326c-2.081,1.167-4.404,1.952-6.689,2.695c-6.671,2.172-13.157,1.53-19.368-1.669 c-1.797-0.926-3.387-2.15-3.333-4.518c0.053-2.332,1.514-3.765,3.457-4.379c3.212-1.014,6.541-2.275,9.827-2.288 c5.203-0.022,10.436,0.724,15.604,1.495c2.649,0.395,4.555-0.122,6.501-1.967c4.7-4.457,7.024-9.874,7.195-16.261 c0.375-14.003-10.384-25.37-24.731-26.264c-6.809-0.424-12.682,1.749-17.787,5.406c0.256,2.749,0.66,4.858,0.601,6.954 c-0.108,3.877-2.055,6.683-5.597,8.344c-4.784,2.243-8.615-0.145-8.583-5.472c0.01-1.794,0.441-3.585,0.749-5.9 c-1.467,1.137-2.537,2.003-3.645,2.817c-2.228,1.637-4.642,2.658-7.505,2.442c-4.886-0.371-7.536-4.905-5.063-9.17 c0.949-1.637,2.486-3.262,4.153-4.087c3.507-1.735,7.277-2.937,11.495-4.575c0.046-0.116,0.437-0.867,0.646-1.665 c1.806-6.893-0.494-12.959-4.314-18.43c-6.788-9.723-14.869-18.285-24.861-24.788c-33.061-21.516-68.472-25.32-105.827-13.667 c-2.894,0.903-5.77,2.047-8.498,4.124c3.917,3.749,8.378,4.99,13.085,5.107c5.377,0.133,10.783,0,16.148-0.4 c10.17-0.758,19.007,2.284,26.744,8.76c4.271,3.576,7.442,8.082,8.1,13.586c0.682,5.72,0.602,11.565,0.426,17.342 c-0.233,7.782-1.139,15.547-1.261,23.328c-0.101,6.334,1.794,12.268,5.223,17.703c2.584,4.1,6.271,6.219,11.341,7.095 c-0.707-0.988-1.103-1.725-1.665-2.299c-3.597-3.676-5.455-8.173-6.57-13.12c-1.622-7.188-1.041-14.383-0.398-21.589 c0.283-3.176,1.212-4.447,2.973-4.406c1.919,0.045,2.511,1.578,2.272,5.005c-0.503,7.223-0.803,14.432,1.238,21.535 c1.095,3.81,3.11,6.962,5.96,9.628c1.227,1.147,2.554,2.112,4.311,1.372c-0.919-3.928-1.806-7.624-2.637-11.332 c-0.345-1.544-0.007-2.911,1.709-3.361c1.671-0.438,2.785,0.506,3.259,1.991c0.557,1.749,0.841,3.583,1.289,5.369 c0.948,3.786,2.553,6.576,7.106,7.208c5.439,0.754,8.908,4.432,9.965,9.751c0.59,2.974,0.689,6.284,0.032,9.225 c-2.971,13.286-11.355,22.535-22.821,29.292C900.2,395.695,898.952,396.321,897.566,397.072z M973.162,423.914 c0.417,5.292,5.196,12.105,10.578,15.14c1.679-3.838-0.251-6.912-2.153-9.785C979.652,426.35,977.229,423.806,973.162,423.914z M992.123,365.611c-3.48-1.196-6.971-1.614-10.926,0.125C985.132,367.571,988.61,367.272,992.123,365.611z M948.152,324.492 c2.614-0.32,4.187-1.231,5.541-3.615C951.095,321.267,949.465,322.085,948.152,324.492z M966.628,327.856 c-2.085,0.056-2.212,1.099-1.637,3.385C965.796,329.576,966.212,328.716,966.628,327.856z"/><path fill="#002600" d="M587.116,511.68c-5.131,1.354-10.021,2.693-14.941,3.908 c-1.216,0.3-2.54,0.329-3.8,0.25c-1.609-0.101-2.857-1.104-2.614-2.711c0.156-1.027,1.123-2.304,2.067-2.75 c1.359-0.643,3.022-0.672,4.565-0.894c8.089-1.167,15.091-4.733,21.402-9.762c3.181-2.536,3.961-4.121,4.022-7.566 c-1.259,0.331-2.483,0.534-3.617,0.971c-6.694,2.581-13.658,3.667-20.789,3.951c-2.121,0.084-4.249,0.561-6.347,0.428 c-1.041-0.067-2.449-0.874-2.93-1.76c-0.75-1.38-0.018-2.913,1.469-3.489c1.414-0.548,2.994-0.813,4.519-0.904 c7.946-0.475,15.847-1.164,23.341-4.136c2.861-1.134,5.683-2.363,8.523-3.549c0.032-0.351,0.065-0.701,0.098-1.052 c-0.994-0.558-1.93-1.408-2.992-1.619c-3.18-0.63-6.405-1.044-9.621-1.48c-6.728-0.913-13.462-1.785-20.194-2.676 c-1.784-0.236-2.893-1.175-2.881-3.05c0.01-1.694,1.369-2.904,3.62-2.645c4.355,0.502,8.649,1.605,13.011,1.977 c4.642,0.396,9.34,0.43,13.996,0.226c2.167-0.095,4.293-1.127,6.504-1.752c-0.117-2.895-1.694-4.617-3.224-6.177 c-5.386-5.494-11.215-10.431-18.451-13.399c-6.954-2.852-13.875-5.826-21.625-5.648c-0.698,0.017-1.44-0.082-2.096-0.313 c-2.037-0.718-2.464-2.838-0.843-4.34c0.563-0.521,1.374-0.774,2.274-1.259c-0.739-1.497-1.33-2.766-1.981-4.003 c-6.726-12.802-13.461-25.598-20.191-38.396c-0.528-1.004-1.103-1.988-1.554-3.026c-1.147-2.634-0.944-3.95,1.533-5.374 c2.434-1.398,5.128-2.362,7.753-3.404c1.688-0.67,3.458-1.138,5.733-1.871c-1.865-6.134-3.654-12.021-5.571-18.331 c-2.477,0.63-4.629,1.153-6.766,1.727c-4.243,1.138-8.451,2.418-12.726,3.415c-2.481,0.58-4.022,1.82-4.689,4.286 c-0.292,1.083-0.848,2.1-1.333,3.123c-0.758,1.595-1.985,2.476-3.769,1.904c-1.587-0.509-2.059-1.812-1.854-3.392 c0.072-0.548,0.163-1.094,0.346-2.327c-5.542,1.063-10.779,1.961-15.951,3.143c-1.086,0.248-1.992,1.48-2.879,2.362 c-1.004,0.997-1.837,2.167-2.846,3.157c-1.22,1.196-2.658,1.772-4.153,0.483c-1.465-1.262-1.291-2.791-0.213-4.171 c1.916-2.456,3.89-4.87,5.919-7.233c12.381-14.417,24.806-28.798,37.133-43.261c0.81-0.949,1.15-2.454,1.319-3.75 c0.204-1.569,0.689-2.815,2.255-3.218c1.649-0.424,2.851,0.508,3.285,1.987c0.682,2.33,2.377,2.792,4.445,3.229 c20.795,4.382,41.572,8.845,62.354,13.289c1.108,0.237,2.21,0.504,3.315,0.755c1.857,0.423,3.173,1.371,2.946,3.481 c-0.192,1.779-1.837,2.675-4.34,2.225c-3.205-0.576-6.373-1.358-9.558-2.041c-0.831-0.178-1.679-0.281-2.505-0.481 c-1.429-0.349-2.421,0.134-3.244,1.352c-1.503,2.227-3.11,4.383-4.804,6.75c0.68,0.788,1.552,1.41,1.837,2.234 c0.334,0.963,0.56,2.365,0.087,3.093c-0.477,0.734-1.87,1.199-2.856,1.189c-1.058-0.012-2.208-0.557-3.142-1.148 c-2.355-1.49-4.653-1.44-7.282-0.656c-7.058,2.108-14.194,3.949-21.295,5.913c-0.942,0.261-1.857,0.62-3.262,1.096 c1.532,6.214,3.612,12.136,5.521,18.323c4.397-0.525,8.44-1.126,12.506-1.474c30.104-2.582,59.096,1.748,86.693,14.304 c8.169,3.717,15.773,8.392,22.275,14.679c1.119,1.082,2.244,2.192,3.168,3.436c1.56,2.101,1.223,3.478-0.831,4.991 c-1.697,1.25-3.402,2.517-4.938,3.956c-10.144,9.501-20.248,19.045-30.352,28.59c-1.297,1.225-2.605,2.216-2.486,4.54 c0.125,2.385-1.619,3.162-4.669,2.548c-4.777-0.96-9.606-1.445-14.354-0.335c-3.12,0.727-6.31,1.796-9.028,3.439 c-3.638,2.199-3.568,5.231-0.219,7.907c4.292,3.429,9.487,4.325,14.75,4.744c2.239,0.178,4.519-0.156,6.779-0.276 c1.128-0.061,2.396-0.522,3.344-0.15c1.006,0.394,2.146,1.448,2.403,2.43c0.2,0.769-0.64,2.156-1.417,2.74 c-0.835,0.628-2.119,0.775-3.232,0.901c-8.958,1.009-17.554,0.086-25.343-4.939c-0.465-0.299-0.963-0.545-1.596-0.901 c-1.471,1.118-2.909,2.21-4.508,3.426c3.572,4.976,3.79,10.283,2.284,16.027c-2.985,11.376-5.654,22.835-8.448,34.261 c-0.166,0.678-0.281,1.371-0.491,2.415c1.345,0.719,2.765,1.325,4.015,2.18c2.092,1.432,4.358,2.761,6.045,4.599 c3.465,3.777,2.25,8.377-2.563,10.163c-1.832,0.68-3.851,1.075-5.806,1.167c-11.283,0.533-21.956-1.909-32.06-6.908 c-0.761-0.376-1.494-0.816-2.212-1.269c-3.98-2.506-6.877-5.59-5.444-10.929c-0.863-0.473-1.585-0.864-2.304-1.263 c-1.369-0.76-2.287-1.869-1.706-3.456c0.626-1.706,2.096-2.156,3.828-1.894c1.961,0.297,3.918,0.66,5.893,0.827 C574.339,524.026,583.86,518.58,587.116,511.68z M558.428,388.984c1.441,4.751,2.947,8.612,3.739,12.614 c0.962,4.854,3.531,7.82,8.257,9.049c0.679,0.177,1.31,0.536,1.969,0.797c19.777,7.852,40.361,11.19,61.567,10.699 c11.662-0.271,23.154-1.916,34.28-5.604c1.64-0.544,3.212-1.297,4.972-2.018c-8.458-9.514-29.004-18.989-52.329-24.013 C600.381,386.092,579.757,384.949,558.428,388.984z M606.132,462.518c2.988-5.651,7.581-8.412,13.029-9.492 c4.405-0.873,8.96-1.246,13.454-1.295c2.313-0.026,3.988-0.427,5.663-2.035c7.767-7.462,15.642-14.812,23.462-22.219 c0.891-0.844,1.681-1.793,3.056-3.271c-41.248,8.43-79.661,3.324-116.178-18.131c0.788,1.766,1.183,2.795,1.692,3.765 c4.868,9.285,9.832,18.521,14.583,27.864c1.273,2.503,3.008,3.708,5.668,4.398c11.368,2.95,22.034,7.354,30.612,15.77 C602.676,459.345,604.244,460.752,606.132,462.518z M604.02,541.587c0.206-0.499,0.413-0.998,0.619-1.496 c-0.648-0.31-1.308-0.599-1.944-0.933c-1.999-1.048-3.951-2.193-5.99-3.155c-3.606-1.703-4.21-2.615-3.783-6.557 c0.121-1.117,0.433-2.217,0.697-3.315c1.592-6.595,3.208-13.185,4.781-19.785c0.197-0.823,0.18-1.697,0.292-2.854 c-2.907,1.359-4.275,2.996-4.642,5.938c-0.284,2.272-1.417,4.669-2.812,6.533c-5.535,7.396-12.555,12.561-22.108,13.466 c-0.668,0.063-1.324,0.244-1.816,0.337c-1.646,3.252,0.618,4.42,2.559,5.493c9.243,5.107,19.226,7.313,29.736,7.17 C601.083,542.412,602.55,541.881,604.02,541.587z M569.995,353.18c0.024-0.406,0.048-0.813,0.07-1.219 c-8.675-4.209-17.248-8.629-26.014-12.649c-0.243,0.218-0.484,0.434-0.727,0.651c1.937,6.224,3.874,12.446,5.9,18.959 C556.539,356.9,563.267,355.04,569.995,353.18z M536.71,338.285c-3.446,5.858-10.304,23.636-10.378,26.789 c5.737-1.511,11.475-2.691,17.127-4.937C541.192,352.795,539.069,345.921,536.71,338.285z M552.59,335.677 c-0.065,0.315-0.131,0.631-0.197,0.946c9.477,4.643,18.954,9.285,28.669,14.044c1.856-2.588,3.464-4.829,5.534-7.714 C574.825,340.433,563.707,338.056,552.59,335.677z M526.613,345.143c-3.857,2.885-20.07,22.077-21.255,25.134 c3.193-0.546,6.227-1.142,9.284-1.562c2.206-0.304,3.465-1.373,4.269-3.495c2.154-5.699,4.531-11.314,6.79-16.974 C526.049,347.374,526.238,346.438,526.613,345.143z M555.587,402.755c0.267-0.17,0.533-0.34,0.8-0.51 c-1.194-3.84-2.389-7.681-3.587-11.532c-3.427,0.108-6.087,1.083-9.048,2.826C547.452,397.424,551.296,400.372,555.587,402.755z"/><path fill="#002600" d="M564.206,697.629c4.472-3.064,8.616-5.945,12.801-8.767 c12.273-8.276,25.259-15.215,39.16-20.326c19.614-7.213,39.456-6.961,59.334-1.196c14.541,4.219,27.988,11,40.772,18.92 c10.469,6.487,20.373,13.887,30.52,20.893c1.475,1.019,2.908,2.096,4.746,3.423c0.821-2.374,1.362-4.242,2.115-6.022 c0.598-1.415,1.251-2.913,2.275-4.002c0.598-0.638,2.095-0.956,2.966-0.691c1.367,0.417,1.725,1.749,1.213,3.162 c-1.301,3.593-2.604,7.184-3.983,10.989c0.819,0.844,1.519,1.711,2.359,2.41c28.018,23.27,50.865,50.894,69.252,82.263 c1.274,2.175,2.904,3.683,5.195,4.769c8.319,3.94,15.476,9.432,21.306,16.59c0.801,0.985,1.595,2.016,2.163,3.141 c0.676,1.341,0.775,2.861-0.578,3.859c-1.486,1.097-2.96,0.699-4.133-0.671c-0.645-0.753-1.188-1.59-1.801-2.37 c-3.888-4.933-8.37-9.194-14.429-12.093c0.401,1.069,0.738,2.167,1.212,3.202c3.256,7.084,6.565,14.142,9.79,21.24 c0.516,1.137,1.04,2.453,0.933,3.628c-0.083,0.905-0.987,2.055-1.832,2.464c-0.646,0.314-2.138-0.066-2.608-0.654 c-1.038-1.296-1.778-2.872-2.447-4.416c-7.907-18.259-17.211-35.745-28.266-52.318c-22.01-33-49.761-60.25-82.199-82.909 c-13.414-9.37-27.512-17.47-42.486-24.062c-27.571-12.138-54.89-12.23-82.094,1.327c-11.712,5.836-22.896,12.496-33.503,20.119 c-3.09,2.221-5.899,4.883-8.605,7.576c-4.515,4.494-8.861,9.158-13.235,13.791c-1.026,1.087-2.302,1.603-3.321,0.61 c-0.765-0.743-1.319-2.265-1.125-3.279c0.212-1.11,1.303-2.121,2.17-3.021c1.967-2.04,4.132-3.896,6.039-5.99 c4.558-5.007,4.604-5.052,4.045-11.652c-3.528-41.688-12.729-82.011-29.329-120.513c-6.414-14.875-13.826-29.238-23.402-42.362 c-2.913-3.992-6.132-7.822-9.614-11.325c-7.662-7.708-17.229-11.124-27.973-11.688c-10.198-0.535-20.068,1.55-29.836,3.913 c-9.898,2.395-19.659,5.385-29.429,8.289c-7.329,2.178-14.585,4.607-21.856,6.98c-1.667,0.544-3.169,0.676-3.92-1.197 c-0.743-1.852,0.518-2.903,1.942-3.727c0.484-0.28,1.039-0.449,1.576-0.626c13.179-4.345,26.255-9.043,39.571-12.915 c11.418-3.32,23.087-5.827,35.032-6.61c18.651-1.222,33.848,5.322,45.406,20.127c10.807,13.843,19.333,29.048,26.248,45.11 c4.87,11.313,8.977,22.956,13.411,34.458c0.498,1.293,0.906,2.622,1.463,4.244c0.942-0.733,1.661-1.166,2.226-1.749 c10.008-10.352,21.272-19.208,33.164-27.229c50.285-33.92,104.26-60.189,162.403-77.686c10.866-3.27,21.94-5.751,33.26-6.885 c3.518-0.352,7.076-0.3,10.617-0.405c0.561-0.017,1.15,0.025,1.684,0.185c1.502,0.448,2.495,1.378,2.352,3.073 c-0.144,1.704-1.233,2.469-2.852,2.537c-2.69,0.113-5.391,0.085-8.072,0.298c-18.238,1.445-35.683,6.434-52.841,12.38 c-51.976,18.016-100.98,42.042-146.124,73.594c-9.153,6.397-17.497,13.96-26.13,21.087c-1.955,1.614-3.485,3.733-5.35,5.47 c-1.912,1.783-2.022,3.64-1.357,6.104c4.957,18.35,8.921,36.919,11.531,55.753c0.874,6.316,1.347,12.687,2.02,19.03 C563.815,695.936,563.996,696.579,564.206,697.629z"/><path fill="#002600" d="M294.331,206.087c-0.026,0.52-0.151,1.056-0.063,1.555 c2.129,12.143,4.267,24.285,6.439,36.419c0.628,3.507,1.128,3.893,4.72,4.003c0.99,0.031,1.982-0.065,2.975-0.098 c1.456-0.048,2.552,0.5,2.748,2.038c0.184,1.445-0.535,2.555-1.937,2.896c-1.496,0.363-3.059,0.452-4.592,0.661 c-0.541,0.073-1.08,0.146-2.09,0.283c0.369,2.322,0.373,4.641,1.187,6.628c0.496,1.21,2.123,2.417,3.449,2.721 c2.137,0.492,4.452,0.366,6.679,0.255c1.63-0.081,3.197-0.348,3.877,1.593c0.525,1.499-0.523,3.083-2.694,3.664 c-1.477,0.396-3.077,0.378-4.626,0.448c-1.535,0.069-3.075,0.015-5.255,0.015c0.478,2.742,0.794,5.34,1.455,7.849 c0.186,0.706,1.31,1.457,2.13,1.652c4.266,1.02,8.547,2.18,12.993,0.933c0.672-0.188,1.483-0.419,2.082-0.209 c0.849,0.298,1.973,0.843,2.215,1.546c0.247,0.716-0.163,2.2-0.759,2.558c-1.407,0.845-3.077,1.624-4.675,1.701 c-3.235,0.155-6.494-0.166-9.742-0.307c-0.809-0.035-1.615-0.133-2.957-0.247c0.574,3.527,0.954,6.714,1.689,9.816 c0.193,0.818,1.407,1.834,2.282,1.98c5.079,0.851,10.161,1.083,15.012-1.211c0.64-0.303,1.332-0.809,1.956-0.752 c0.896,0.08,2.23,0.37,2.511,0.973c0.392,0.845,0.326,2.272-0.167,3.061c-0.542,0.865-1.726,1.438-2.744,1.878 c-3.692,1.598-7.556,2.338-11.604,2.097c-1.8-0.107-3.613-0.019-5.901-0.019c0.673,3.857,1.272,7.292,1.875,10.752 c4.265,1.698,8.369,0.867,12.351,0.166c6.616-1.168,12.844-3.492,18.332-7.516c0.343-0.251,0.68-0.511,1.028-0.756 c1.437-1.01,2.879-1.259,4.192,0.158c1.149,1.242,0.875,2.968-0.648,4.513c-0.298,0.301-0.636,0.569-0.983,0.812 c-9.754,6.812-20.575,9.969-32.458,9.349c-4.633-0.241-7.049-2.002-8.148-8.103c-2.412-13.388-4.685-26.801-7.025-40.202 c-4.971-28.478-9.952-56.954-14.917-85.433c-0.193-1.11-0.621-2.357-0.3-3.331c0.346-1.05,1.289-2.274,2.262-2.629 c0.744-0.271,2.064,0.526,2.892,1.157c0.617,0.47,0.88,1.423,1.261,2.18c18.784,37.358,37.565,74.72,56.339,112.084 c0.508,1.01,1.292,2.058,1.301,3.094c0.01,1.104-0.443,2.595-1.241,3.234c-1.203,0.962-2.783,0.564-3.708-0.795 c-0.871-1.28-1.563-2.691-2.262-4.08c-14.659-29.12-29.306-58.247-43.966-87.366c-0.669-1.331-1.434-2.615-2.153-3.921 C294.74,205.919,294.536,206.003,294.331,206.087z"/><path fill="#002600" d="M90.008,412.451c1.568-2.79,1.804-5.55,1.548-8.4 c-0.158-1.757-0.352-3.579,2.023-3.955c1.731-0.274,3.064,1.082,3.133,3.696c0.074,2.806-0.294,5.63-0.564,8.436 c-0.107,1.101-0.472,2.179-0.695,3.162c5.445,3.932,10.735,7.713,15.975,11.564c1.13,0.831,2.368,1.746,3.023,2.92 c0.523,0.937,0.667,2.542,0.208,3.467c-0.746,1.502-2.396,1.33-3.74,0.616c-0.987-0.525-1.851-1.298-2.729-2.012 c-9.4-7.657-19.663-13.904-30.765-18.762c-1.809-0.792-3.685-1.571-5.61-1.923c-2.622-0.479-3.912-2.105-4.668-4.378 c-0.537-1.611-0.873-3.291-1.41-4.901c-2.083-6.244-5.033-11.746-11.916-13.913c-1.5-0.472-2.653-1.66-1.876-3.195 c0.441-0.873,1.988-1.728,2.974-1.661c1.622,0.11,3.314,0.757,4.763,1.561c5.342,2.965,8.522,7.761,10.745,13.286 c0.37,0.918,0.805,1.853,0.932,2.817c0.607,4.591,3.416,6.452,8.068,6.523c0.962-6.128-0.103-11.756-3.724-16.843 c-0.902-1.268-1.967-2.419-2.894-3.672c-0.858-1.162-0.94-2.371,0.185-3.434c1.122-1.06,2.333-0.868,3.479-0.044 c0.569,0.409,1.083,0.916,1.551,1.441c4.594,5.16,7.262,11.113,7.385,18.098c0.022,1.276,0.013,2.553,0.028,3.829 C85.485,410.882,85.487,410.882,90.008,412.451z"/><path fill="#002600" d="M33.226,601.449c8.573-0.026,15.95,3.647,23.107,7.72 c3.55,2.02,6.994,4.407,10.009,7.151c11.106,10.112,22.446,20.023,32.086,31.605c5.072,6.094,9.715,12.547,14.516,18.866 c0.767,1.009,1.44,2.118,1.984,3.262c0.652,1.374,0.732,2.851-0.697,3.802c-1.554,1.034-2.974,0.485-4.138-0.828 c-0.374-0.423-0.708-0.887-1.016-1.36c-12.506-19.199-28.843-34.913-45.706-50.132c-5.504-4.968-11.745-8.866-18.587-11.791 c-3.945-1.686-7.931-2.999-12.31-2.828c-1.396,0.054-2.906-0.045-4.178-0.545c-0.867-0.342-2.083-1.654-1.947-2.263 c0.225-1.001,1.278-2.257,2.241-2.548C30.017,601.129,31.669,601.449,33.226,601.449z"/><path fill="#002600" d="M592.743,713.611c0.579-1.799,0.928-2.829,1.243-3.872 c0.979-3.24,1.815-6.533,2.957-9.715c1.059-2.953,2.5-3.899,4.107-3.199c1.438,0.627,1.653,2.199,0.937,4.907 c-1.19,4.497-2.549,8.978-3.314,13.553c-1.026,6.124-1.557,12.33-2.292,18.502c-0.083,0.7,0.108,1.547-0.225,2.078 c-0.547,0.873-1.292,1.895-2.184,2.217c-1.376,0.497-2.448-0.442-2.941-1.761c-0.29-0.775-0.471-1.65-0.448-2.472 c0.054-1.832,0.097-3.691,0.449-5.479c0.762-3.866,0.769-7.265-2.14-10.612c-2.164-2.489-3.367-5.847-4.827-8.899 c-0.527-1.101-0.959-2.535-0.696-3.642c0.235-0.99,1.36-2.144,2.334-2.447c0.613-0.191,1.992,0.868,2.464,1.689 c0.901,1.57,1.317,3.409,2.091,5.063C590.826,710.736,591.646,711.831,592.743,713.611z"/><path fill="#002600" d="M327.324,174.903c3.614-0.191,6.565-0.373,9.52-0.495 c3.335-0.138,4.824,0.705,4.902,2.692c0.085,2.171-1.528,3.181-4.937,3.23c-3.093,0.045-6.184,0.194-9.545,0.306 c-0.199,2.007-0.368,3.674-0.526,5.34c-0.081,0.847-0.127,1.697-0.217,2.542c-0.169,1.601-1.01,2.753-2.637,2.83 c-1.874,0.089-2.875-1.189-2.99-2.918c-0.148-2.227-0.036-4.471-0.036-7.07c-2.322,0-4.258,0.016-6.193-0.005 c-1.686-0.018-3.202-0.438-3.378-2.433c-0.184-2.084,1.39-2.61,3.005-2.839c2.091-0.296,4.204-0.449,6.844-0.719 c0.15-2.833,0.307-5.603,0.439-8.374c0.062-1.274-0.024-2.563,0.135-3.823c0.279-2.205,1.541-3.474,3.189-3.239 c1.881,0.267,2.573,1.58,2.557,3.337c-0.023,2.552-0.093,5.103-0.13,7.655C327.31,172.021,327.324,173.123,327.324,174.903z"/><path fill="#002600" d="M250.741,168.076c-2.23,0-4.035,0.045-5.836-0.01 c-2.407-0.077-3.573-0.955-3.677-2.648c-0.104-1.701,0.998-2.895,3.245-3.2c1.922-0.261,3.874-0.299,6.286-0.469 c0-3.668-0.01-7.022,0.005-10.376c0.005-1.272-0.054-2.563,0.136-3.811c0.238-1.562,1.257-2.803,2.865-2.424 c1.015,0.239,2.152,1.306,2.589,2.289c0.483,1.085,0.276,2.497,0.287,3.767c0.028,3.217,0.01,6.434,0.01,10.043 c2.417,0,4.219-0.027,6.019,0.007c1.739,0.033,3.042,0.718,3.284,2.615c0.218,1.714-0.862,2.783-3.183,3.14 c-1.796,0.275-3.606,0.454-5.968,0.744c0,1.993-0.001,3.782,0,5.57c0.001,1.132,0.036,2.265,0,3.396 c-0.056,1.754-0.747,3.03-2.695,3.163c-1.784,0.122-2.895-0.993-3.089-3.256c-0.133-1.546-0.03-3.112-0.069-4.668 C250.92,170.824,250.831,169.705,250.741,168.076z"/><path fill="#002600" d="M795.845,796.181c-0.646,0.766-1.187,1.99-2.017,2.236 c-0.874,0.259-2.145-0.221-3.013-0.754c-0.638-0.391-1.011-1.342-1.326-2.116c-4.729-11.621-11.271-22.174-18.846-32.125 c-0.683-0.897-1.53-1.831-1.754-2.866c-0.205-0.942,0.005-2.46,0.637-2.963c0.646-0.513,2.049-0.221,3.079-0.039 c0.45,0.079,0.836,0.726,1.179,1.169c7.891,10.208,15.457,20.622,20.358,32.69C794.722,792.841,795.184,794.319,795.845,796.181z"/><path fill="#002600" d="M886.727,380.354c0.497-1.673,0.931-3.768,1.731-5.713 c2.429-5.91,6.284-10.739,11.529-14.413c2.366-1.656,4.935-2.787,7.917-2.635c2.28,0.116,4.108,1.038,5.268,3.058 c0.77,1.339,1.032,2.925-0.308,3.835c-0.854,0.58-2.752,0.85-3.382,0.315c-2.531-2.144-4.543-0.858-6.477,0.616 c-5.352,4.084-9.245,9.155-10.225,16.05c-0.079,0.562,0.045,1.29-0.265,1.65c-0.681,0.794-1.61,1.986-2.38,1.945 c-1.028-0.056-2.176-0.972-2.932-1.823C886.737,382.716,886.905,381.628,886.727,380.354z"/><path fill="#002600" d="M510.305,716.654c-0.718-0.482-1.91-0.854-2.169-1.564 c-0.332-0.911-0.137-2.189,0.261-3.127c0.283-0.667,1.215-1.163,1.962-1.51c6.972-3.227,11.506-8.909,15.436-15.211 c0.373-0.598,0.574-1.465,1.105-1.765c1-0.564,2.312-1.314,3.263-1.073c1.692,0.428,1.596,2.062,1.193,3.521 c-0.073,0.269-0.202,0.526-0.337,0.772c-4.276,7.794-9.556,14.645-17.732,18.744C512.415,715.878,511.474,716.183,510.305,716.654 z"/><path fill="#002600" d="M694.918,600c-0.076,3.128-1.862,4.365-4.269,3.178 c-1.488-0.734-2.961-1.731-4.077-2.945c-3.367-3.661-5.028-8.153-5.267-13.062c-0.058-1.173,0.768-2.794,1.716-3.515 c1.295-0.985,3.077-0.613,4.241,0.64C691.509,588.866,693.911,594.343,694.918,600z"/><path fill="#002600" d="M24.683,611.132c6.715,1.592,13.24,1.782,18.711,5.485 c1.255,0.85,2.507,1.927,3.274,3.193c0.438,0.725,0.261,2.378-0.309,2.999c-0.554,0.604-1.96,0.454-3,0.566 c-0.236,0.026-0.546-0.181-0.748-0.362c-4.334-3.896-9.849-4.684-15.233-5.828c-1.103-0.234-2.212-0.506-3.262-0.908 c-1.457-0.558-2.574-1.687-1.878-3.23C22.652,612.131,23.999,611.636,24.683,611.132z"/><path fill="#002600" d="M464.844,532.371c-0.237,1.703-0.699,3.276-2.599,3.494 c-1.682,0.193-2.523-0.923-2.882-2.493c-1.086-4.743-4.428-7.387-8.63-9.246c-1.156-0.511-2.496-0.949-3.284-1.836 c-0.604-0.68-0.83-2.125-0.549-3.019c0.195-0.625,1.541-1.282,2.353-1.258c5.726,0.171,14.22,7.545,15.372,13.18 C464.709,531.608,464.78,532.025,464.844,532.371z"/><path fill="#002600" d="M431.059,523.849c2.426,0.067,3.522,1.463,2.964,3.289 c-1.659,5.43-0.068,9.619,4.474,12.847c1.287,0.915,1.883,2.142,1.075,3.646c-0.837,1.557-2.286,1.396-3.708,1.059 c-0.401-0.095-0.774-0.328-1.146-0.523c-4.984-2.609-8.476-12.316-6.12-17.466C429.167,525.456,430.445,524.536,431.059,523.849z"/><path fill="#002600" d="M39.346,634.209c-4.626-0.665-8.443-1.013-12.158-1.826 c-2.007-0.44-3.963-1.49-5.688-2.643c-0.643-0.43-0.974-2.057-0.722-2.929c0.39-1.35,1.807-1.974,3.111-1.285 c3.774,1.995,7.869,2.069,11.957,2.43c1.5,0.132,3.145,0.603,4.347,1.452c0.806,0.569,1.48,2.218,1.238,3.123 C41.2,633.402,39.715,633.939,39.346,634.209z"/><path fill="#002600" d="M60.26,602.894c-0.526,0.579-1.098,1.684-1.966,2.014 c-0.704,0.268-1.847-0.245-2.633-0.696c-0.551-0.317-0.878-1.083-1.22-1.696c-2.272-4.076-4.401-8.221-8.199-11.22 c-1.335-1.055-1.701-2.678-0.356-4.107c1.211-1.288,2.499-0.875,3.772,0.081c4.672,3.512,7.456,8.431,10.086,13.463 C59.996,601.214,60.013,601.82,60.26,602.894z"/><path fill="#002600" d="M809.67,823.689c2.56,0.036,4.83,2.604,4.748,4.669 c-0.057,1.404-0.644,2.444-2.198,2.57c-1.605,0.129-4.781-3.227-4.346-4.883C808.138,825.04,809.22,824.249,809.67,823.689z"/><path fill="#002600" d="M1036.738,417.778c0.063-6.522-1.473-12.154-5.234-17.091 c-0.342-0.449-0.883-0.927-0.9-1.408c-0.043-1.173-0.234-2.651,0.366-3.466c0.934-1.267,2.555-1.093,3.81-0.134 c0.772,0.59,1.417,1.383,2.008,2.167c8.251,10.941,7.872,30.024-0.781,40.622c-2.38,2.917-5.218,5.271-8.853,6.337 c-1.714,0.502-3.637,0.643-5.407,0.442c-0.802-0.091-1.94-1.351-2.055-2.199c-0.117-0.86,0.708-1.98,1.379-2.762 c0.388-0.451,1.276-0.573,1.961-0.651c4.677-0.533,7.674-3.42,9.935-7.2C1035.724,427.821,1036.923,422.767,1036.738,417.778z"/><path fill="#002600" d="M964.46,472.606c-0.333-1.589-0.708-3.518-1.149-5.431 c-0.222-0.955-0.864-1.915-0.768-2.814c0.104-0.971,0.727-2.543,1.342-2.655c0.993-0.181,2.829,0.331,3.142,1.055 c1.164,2.687,2.451,5.548,2.611,8.405c0.545,9.778-2.476,18.346-9.906,25.063c-0.515,0.466-1.13,1.103-1.728,1.135 c-1.02,0.054-2.401,0.025-3.002-0.586c-0.613-0.625-0.898-2.176-0.552-2.993c0.524-1.234,1.632-2.274,2.644-3.239 C962.121,485.756,963.773,479.608,964.46,472.606z"/><path fill="#002600" d="M1012.663,443.008c-1.566,1.412-2.375,2.632-3.468,3.001 c-1.402,0.471-2.41-0.587-2.533-2.072c-0.136-1.638,0.699-2.911,2.342-2.86C1009.991,441.107,1010.951,442.061,1012.663,443.008z"/><path fill="#FFF" d="M612.657,721.985c0-4.909-0.105-8.457,0.044-11.993 c0.076-1.814,0.378-3.689,0.984-5.393c0.885-2.494,3.322-3.829,5.701-3.528c2.588,0.327,4.516,2.354,4.876,5.137 c0.037,0.28,0.033,0.566,0.037,0.849c0.375,28.967,6.953,56.639,17.092,83.636c9.074,24.163,21.895,45.996,39.285,65.089 c2.57,2.821,5.507,5.304,8.24,7.978c1.834,1.794,2.771,3.904,2.052,6.529c-0.664,2.423-2.286,3.837-4.646,4.493 c-2.111,0.587-3.981-0.123-5.563-1.382c-2.211-1.762-4.394-3.599-6.352-5.632c-17.292-17.96-30.768-38.487-40.45-61.423 c-7.944-18.819-14.59-38.12-18.184-58.285C614.163,739.019,613.563,729.797,612.657,721.985z"/><path fill="#FFF" d="M923.02,663.288c-0.625,38.549-7.239,76.068-20.315,112.386 c-1.485,4.124-3.385,8.103-5.195,12.103c-0.576,1.275-1.353,2.516-2.269,3.572c-1.908,2.201-4.846,2.728-7.342,1.513 c-2.642-1.285-4.014-4.162-3.329-7.112c0.191-0.822,0.498-1.633,0.865-2.396c8.724-18.147,13.928-37.413,17.896-57.039 c4.587-22.69,7.752-45.562,7.286-68.787c-0.104-5.228-0.683-10.462-1.333-15.658c-0.53-4.231-1.772-8.233-4.45-11.783 c-2.106-2.792-1.457-6.376,0.972-8.443c2.495-2.122,5.731-2.049,8.529,0.3c2.689,2.259,4.54,5.213,5.304,8.548 c1.354,5.918,2.621,11.898,3.273,17.923C923.442,653.319,923.02,658.327,923.02,663.288z"/><path fill="#FFF" d="M366.705,324.569c11.671,0.632,21.602,9.118,23.386,20.907 c1.795,11.869-2.279,21.622-12.151,28.457c-15.131,10.478-34.821,1.729-37.548-16.458c-1.82-12.141,4.731-24.773,15.834-29.833 C359.504,326.147,363.201,325.567,366.705,324.569z"/><path fill="#FFF" d="M128.997,696.084c-3.914-0.021-6.332-1.85-6.766-4.68 c-0.487-3.175,1.261-5.839,4.679-6.521c19.033-3.799,36.088-12.364,52.637-22.013c9.295-5.42,18.266-11.401,27.327-17.215 c8.346-5.356,16.614-10.833,24.928-16.238c0.827-0.539,1.68-1.105,2.603-1.417c3.899-1.314,7.573,1.302,7.672,5.432 c0.089,3.709-2.125,6.006-4.977,7.863c-7.479,4.871-14.926,9.792-22.459,14.576c-10.882,6.91-21.706,13.925-32.78,20.515 c-14.32,8.523-29.652,14.727-45.892,18.58C133.499,695.551,130.944,695.78,128.997,696.084z"/><path fill="#FFF" d="M513.66,657.751c-0.476,0.972-0.944,2.495-1.847,3.688 c-9.688,12.801-20.058,24.927-32.688,35.044c-9.529,7.634-18.991,15.29-29.789,21.098c-1.492,0.802-2.993,1.654-4.588,2.189 c-3.117,1.045-5.934,0.047-7.458-2.409c-1.498-2.412-1.103-5.426,1.211-7.755c0.982-0.991,2.186-1.811,3.402-2.51 c22.52-12.923,41.563-29.927,58.356-49.587c1.466-1.716,3.003-3.422,4.75-4.832c1.653-1.333,3.661-1.379,5.604-0.315 C512.533,653.413,513.387,655.095,513.66,657.751z"/><path fill="#FFF" d="M578.445,612.823c-4.876,0.045-7.742-3.438-6.659-7.277 c0.544-1.926,1.755-3.995,3.276-5.265c11.12-9.275,22.885-17.611,36.211-23.492c1.794-0.792,3.739-1.386,5.674-1.681 c2.887-0.439,5.507,1.356,6.29,3.942c0.797,2.636-0.344,5.505-3.206,6.618c-13.859,5.386-24.694,15.313-36.411,23.929 C581.73,610.986,579.63,612.09,578.445,612.823z"/><path fill="#FFF" d="M75.493,423.585c1.089,0.307,2.794,0.587,4.332,1.253 c10.695,4.634,20.167,10.91,27.061,20.557c0.657,0.919,1.338,1.846,1.831,2.855c1.482,3.035,0.793,6.193-1.65,8.01 c-2.245,1.669-5.493,1.559-7.844-0.434c-1.067-0.905-2.013-2.005-2.823-3.152c-5.984-8.467-13.923-14.36-23.521-18.146 c-2.98-1.175-4.395-3.658-3.837-6.309C69.606,425.535,72.042,423.613,75.493,423.585z"/><path fill="#FFF" d="M861.155,427.771c-0.375,0.665-1.032,2.204-2.008,3.503 c-7.083,9.428-16.769,15.401-27.226,20.324c-0.635,0.299-1.314,0.518-1.991,0.707c-3.076,0.862-5.91-0.166-7.339-2.636 c-1.489-2.572-0.93-6.01,1.607-7.998c1.534-1.201,3.338-2.117,5.13-2.917c7.807-3.493,15.078-7.685,20.725-14.346 c1.111-1.311,2.876-2.388,4.541-2.845C858.091,420.598,861.148,423.208,861.155,427.771z"/><path fill="#FFF" d="M714.431,589.306c-0.541,3.175-1.978,5.553-4.261,6.421 c-2.34,0.891-4.998,0.171-6.819-2.112c-1.496-1.875-2.564-4.112-4.167-5.875c-4.368-4.802-8.843-9.513-13.426-14.11 c-2.442-2.449-3.197-5.03-1.663-7.539c1.476-2.415,4.467-3.334,7.477-2.187c0.906,0.346,1.804,0.863,2.53,1.502 c6.167,5.427,12.259,10.948,17.067,17.668C712.518,584.964,713.357,587.219,714.431,589.306z"/><path fill="#FFF" d="M799.035,519.322c-2.796-0.41-5.026-0.907-7.277-1.032 c-5.502-0.306-11.014-0.456-16.524-0.629c-1.129-0.035-2.267,0.193-3.393,0.139c-2.993-0.144-4.91-1.792-5.35-4.477 c-0.467-2.858,0.893-5.52,3.853-6.234c3.56-0.859,7.251-1.521,10.897-1.578c5.084-0.08,10.188,0.374,15.264,0.821 c1.792,0.158,3.63,0.748,5.262,1.527c2.944,1.405,4.268,4.274,3.556,6.972C804.54,517.796,801.937,519.492,799.035,519.322z"/><path fill="#FFF" d="M753.681,336.886c-0.072-3.403,0.661-7.693,2.747-11.678 c0.455-0.869,0.891-1.995,1.655-2.393c0.999-0.521,2.59-0.93,3.413-0.47c0.789,0.441,1.028,2.031,1.286,3.167 c0.1,0.439-0.375,1.041-0.652,1.531c-2.562,4.513-3.128,9.436-2.398,14.412c1.812,12.344,7.999,21.937,18.831,28.293 c2.04,1.196,4.429,1.82,6.69,2.613c1.797,0.631,3.029,1.611,2.688,3.698c-0.273,1.665-1.636,2.428-4.035,2.013 c-1.652-0.286-3.285-0.849-4.84-1.495C764.415,370.487,753.674,354.104,753.681,336.886z"/><path fill="#FFF" d="M443.228,869.502c-1.657-0.288-4.011-0.788-6.39-1.097 c-9.106-1.183-18.24-2.176-27.327-3.496c-6.001-0.872-11.949-2.127-17.895-3.338c-1.19-0.242-2.449-0.857-3.325-1.675 c-0.559-0.521-0.857-1.896-0.565-2.593c0.291-0.698,1.414-1.145,2.261-1.476c0.455-0.178,1.11,0.064,1.648,0.213 c11.106,3.078,22.595,3.467,33.94,4.879c6.445,0.803,12.866,1.801,19.289,2.78c2.918,0.445,4.275,1.726,3.953,3.46 C448.499,868.862,446.863,869.661,443.228,869.502z"/><path fill="#FFF" d="M448.425,452.067c4.615,0.93,9.744,1.856,14.81,3.048 c1.597,0.376,3.128,1.315,4.506,2.265c2.032,1.4,2.899,3.449,2.277,5.921c-0.574,2.276-2.747,4.049-5.406,3.957 c-2.223-0.078-4.457-0.618-6.63-1.175c-4.521-1.159-9.009-2.267-13.755-2.081c-3.198,0.125-5.37-1.666-5.92-4.339 c-0.571-2.772,1.03-5.478,4.138-6.495C444.157,452.609,446.014,452.493,448.425,452.067z"/><path fill="#FFF" d="M369.557,829.316c-0.636,1.864-1.031,3.072-1.458,4.267 c-4.122,11.547-3.705,22.735,2.523,33.518c1.625,2.814,3.079,5.73,4.553,8.628c0.507,0.998,1.166,2.089,1.155,3.131 c-0.01,0.972-0.583,2.374-1.341,2.778c-0.75,0.4-2.232,0.082-3.04-0.455c-0.87-0.577-1.414-1.726-1.952-2.706 c-1.635-2.975-3.129-6.025-4.801-8.978c-6.736-11.898-6.896-24.218-2.455-36.847c0.515-1.466,1.078-2.919,1.703-4.34 c0.564-1.283,1.691-2.298,2.98-1.633C368.434,827.202,368.998,828.583,369.557,829.316z"/><path fill="#FFF" d="M822.822,401.264c-4.642-0.035-7.189-3.953-5.152-7.694 c0.897-1.65,2.396-3.311,4.041-4.15c4.145-2.114,8.497-3.843,12.836-5.544c1.112-0.436,2.536-0.438,3.737-0.213 c2.455,0.458,3.966,2.098,4.468,4.552c0.444,2.168-0.661,4.62-2.841,5.688c-4.823,2.361-9.717,4.583-14.615,6.79 C824.417,401.088,823.382,401.141,822.822,401.264z"/><path fill="#FFF" d="M221.966,395.231c-1.103-1.331-2.213-2.109-2.425-3.084 c-0.209-0.961,0.339-2.191,0.812-3.182c6.249-13.07,15.548-23.885,25.453-34.243c0.482-0.505,1.078-0.917,1.665-1.305 c1.338-0.885,2.667-0.926,3.832,0.293c1.183,1.238,1.01,2.553,0.026,3.821c-0.344,0.443-0.802,0.795-1.168,1.224 c-6.248,7.304-12.667,14.473-18.652,21.987c-2.702,3.392-4.502,7.496-6.792,11.228 C224.099,392.976,223.188,393.801,221.966,395.231z"/><path fill="#FFF" d="M719.491,331.641c0.534-12.728,4.745-23.074,13.201-31.591 c0.981-0.989,2.096-2.073,3.354-2.485c0.999-0.327,2.619-0.064,3.415,0.597c1.223,1.018,0.905,2.554-0.149,3.771 c-0.367,0.425-0.815,0.78-1.222,1.173c-9.691,9.344-14.153,20.537-11.969,34.047c0.302,1.874,0.08,3.444-1.875,4.167 c-1.708,0.631-3.301-0.429-3.861-2.905C719.827,335.954,719.708,333.394,719.491,331.641z"/><path fill="#FFF" d="M1006.608,726.921c-0.301,0.712-0.486,1.244-0.74,1.741 c-6.38,12.509-15.496,22.638-26.845,30.82c-0.456,0.33-0.958,0.61-1.471,0.843c-2.02,0.92-3.782,0.667-4.507-0.776 c-0.958-1.91,0.051-3.128,1.565-4.278c3.273-2.485,6.549-4.982,9.644-7.682c5.916-5.159,10.993-11.041,14.833-17.946 c0.887-1.595,1.912-3.202,3.22-4.434c0.602-0.567,2.112-0.498,3.073-0.226C1005.938,725.141,1006.223,726.27,1006.608,726.921z"/><path fill="#FFF" d="M456.682,866.335c-0.064-7.169,0.93-14.167,2.871-21.029 c0.46-1.623,1.023-3.307,1.972-4.66c0.471-0.671,2.009-1.025,2.905-0.822c0.637,0.146,1.248,1.413,1.426,2.271 c0.154,0.75-0.261,1.644-0.514,2.445c-2.967,9.367-3.232,18.953-2.317,28.628c0.267,2.821,0.692,5.625,1.007,8.441 c0.077,0.698,0.283,1.597-0.046,2.08c-0.651,0.956-1.529,2.124-2.518,2.362c-0.707,0.17-2.132-0.835-2.547-1.663 c-0.678-1.352-0.962-2.969-1.116-4.503C457.351,875.376,457.045,870.853,456.682,866.335z"/><path fill="#FFF" d="M186.975,633.349c-1.121-1.591-2.18-2.466-2.339-3.484 c-0.181-1.156,0.282-2.501,0.74-3.656c4.435-11.199,9.198-22.241,15.846-32.359c0.543-0.827,0.999-1.716,1.591-2.505 c0.974-1.293,2.333-1.683,3.763-0.978c1.523,0.751,1.731,2.178,1.178,3.646c-0.396,1.052-0.931,2.075-1.549,3.016 c-6.721,10.222-11.804,21.267-16.494,32.521C189.226,630.715,188.213,631.661,186.975,633.349z"/><path fill="#FFF" d="M545.273,468.453c0.087-0.543,0.054-1.598,0.431-2.473 c1.674-3.874,3.28-7.795,5.271-11.505c1.635-3.045,4.917-3.936,7.57-2.557c2.519,1.309,3.648,4.196,2.481,7.318 c-1.576,4.217-3.288,8.397-5.205,12.469c-1.391,2.955-3.851,4.014-6.572,3.369C546.685,474.466,545.202,472.165,545.273,468.453z"/><path fill="#FFF" d="M561.956,861.524c-0.591,10.324-2.954,20.055-7.068,29.309 c-0.869,1.954-2.607,3.63-4.248,5.095c-1.119,1-2.933,0.904-3.689-0.561c-0.464-0.899-0.423-2.641,0.166-3.413 c5.177-6.77,6.69-14.872,8.471-22.851c0.642-2.871,0.72-5.883,0.895-8.84c0.16-2.706,0.672-3.655,2.386-3.664 c1.658-0.007,2.78,1.214,3.076,3.422C562.019,860.577,561.956,861.151,561.956,861.524z"/><path fill="#FFF" d="M379.304,860.135c0.559-5.146,1.092-11.071,1.9-16.958 c0.264-1.915,1.11-3.794,1.939-5.574c0.667-1.431,2.017-2.055,3.557-1.332c1.407,0.664,1.522,2.003,1.08,3.295 c-2.482,7.243-2.577,14.75-2.451,22.266c0.049,2.969,0.458,5.931,0.657,8.9c0.075,1.125,0.264,2.335-0.056,3.366 c-0.245,0.787-1.126,1.749-1.875,1.904c-0.777,0.162-2.079-0.306-2.538-0.941c-0.706-0.977-1.111-2.306-1.252-3.531 C379.861,868.016,379.654,864.479,379.304,860.135z"/><path fill="#FFF" d="M801.107,277.97c4.069-0.039,7.02,3.595,5.702,6.992 c-1.74,4.485-5.137,7.894-9.233,10.185c-3.638,2.034-7.683-1.023-7.403-5.208c0.073-1.095,0.293-2.427,0.966-3.194 c2.415-2.75,4.996-5.367,7.647-7.893C799.434,278.235,800.591,278.153,801.107,277.97z"/><path fill="#FFF" d="M156.033,471.012c-0.611,0.082-2.003,0.304-3.404,0.448 c-3.075,0.318-5.586-1.183-6.369-3.762c-0.825-2.716,0.215-5.445,2.974-6.782c4.02-1.949,8.229-2.016,12.33-0.225 c2.516,1.099,3.579,3.327,3.193,5.878c-0.377,2.489-2.127,4.098-4.949,4.424C158.831,471.108,157.829,471.012,156.033,471.012z"/><path fill="#FFF" d="M600.745,883.047c-4.231-0.337-8.463-0.674-12.693-1.012 c-0.424-0.034-0.851-0.051-1.269-0.12c-2.978-0.49-4.272-1.59-4.036-3.405c0.239-1.829,1.583-2.174,4.808-1.963 c6.917,0.453,13.848,0.679,20.774,0.999c1.13,0.053,2.269,0.047,3.389,0.19c1.387,0.178,2.403,0.879,2.503,2.412 c0.114,1.732-0.889,2.667-2.461,2.901c-1.386,0.208-2.814,0.256-4.216,0.206c-2.263-0.08-4.52-0.299-6.779-0.461 C600.758,882.878,600.752,882.963,600.745,883.047z"/><path fill="#FFF" d="M336.786,846.691c-7.417-1.621-14.38-2.332-20.691-5.529 c-1.388-0.703-2.824-1.313-4.203-2.032c-1.3-0.678-2.002-1.915-1.283-3.161c0.46-0.799,1.698-1.279,2.685-1.593 c0.587-0.187,1.471,0.048,2.042,0.391c5.997,3.609,12.797,4.427,19.466,5.713c0.831,0.16,1.655,0.384,2.458,0.652 c1.526,0.51,2.636,1.649,2.034,3.171C338.873,845.364,337.5,846.048,336.786,846.691z"/><path fill="#FFF" d="M449.719,530.006c-0.119,3.362-3.034,6.098-6.09,5.251 c-2.903-0.805-5.897-2.171-8.187-4.086c-3.056-2.556-1.523-7.644,2.273-8.844c3.837-1.213,10.613,2.422,11.76,6.326 C449.633,529.188,449.675,529.756,449.719,530.006z"/><path fill="#FFF" d="M236.262,409.608c0.251-0.522,0.613-1.769,1.349-2.727 c4.606-5.996,14.071-6.773,19.68-1.662c1.188,1.083,2.241,2.338,1.083,4.029c-1.112,1.625-2.638,1.341-4.136,0.606 c-1.012-0.497-1.972-1.098-2.968-1.63c-2.161-1.155-4.352-1.022-6.522-0.055c-1.192,0.53-1.952,1.183-2.017,2.815 c-0.103,2.59-1.336,3.686-3.138,3.57C237.733,414.436,236.263,412.575,236.262,409.608z"/><path fill="#FFF" d="M967.523,772.299c-0.375,2.027-0.578,3.706-1.014,5.323 c-0.462,1.721-1.395,3.366-3.488,2.868c-2.063-0.492-1.956-2.258-1.892-4.097c0.129-3.622,0.046-7.266-0.224-10.88 c-0.099-1.328-1.183-2.561-1.423-3.908c-0.172-0.96,0.006-2.626,0.578-2.926c0.891-0.467,2.562-0.461,3.334,0.11 c1.035,0.766,1.871,2.179,2.188,3.463C966.42,765.65,966.932,769.128,967.523,772.299z"/><path fill="#FFF" d="M235.44,544.691c-0.527,1.008-0.874,1.769-1.303,2.478 c-2.401,3.969-4.882,7.891-7.206,11.905c-0.881,1.52-1.883,2.619-3.66,1.885c-1.862-0.769-1.849-2.629-1.119-3.975 c2.478-4.563,5.141-9.033,7.889-13.441c0.774-1.243,2.267-1.863,3.7-1C234.471,542.983,234.881,543.955,235.44,544.691z"/><path fill="#FFF" d="M287.253,596.261c2.994,0.034,5.395,2.408,5.443,5.379 c0.052,3.235-2.897,6.157-6.272,6.212c-3.181,0.053-5.737-2.46-5.679-5.582C280.805,599.089,283.908,596.223,287.253,596.261z"/><path fill="#FFF" d="M469.168,665.561c3.171,0.058,5.518,2.72,5.506,6.249 c-0.012,3.353-2.241,5.782-5.352,5.834c-3.383,0.056-5.851-2.707-5.722-6.411C463.715,667.938,466.102,665.505,469.168,665.561z"/><path fill="#FFF" d="M748.579,910.85c-0.048,2.982-2.375,5.275-5.4,5.318 c-3.343,0.049-6.277-2.794-6.27-6.074c0.008-3,2.375-5.36,5.368-5.35C745.641,904.756,748.63,907.652,748.579,910.85z"/><path fill="#FFF" d="M255.86,613.329c3.191-0.054,5.827,2.328,5.975,5.398 c0.154,3.206-2.302,5.804-5.458,5.773c-2.98-0.03-5.606-2.646-5.755-5.735C250.474,615.72,252.727,613.381,255.86,613.329z"/><path fill="#FFF" d="M326.792,344.111c1.028-5.023,3.28-9.389,6.559-13.188 c0.484-0.56,2.04-0.894,2.581-0.539c0.762,0.499,1.221,1.694,1.454,2.677c0.133,0.559-0.416,1.297-0.703,1.935 c-1.492,3.331-3.022,6.645-4.49,9.986c-0.603,1.373-1.291,2.552-3.039,2.43C327.558,347.302,326.646,345.982,326.792,344.111z"/><path fill="#FFF" d="M708.117,884.427c0.056,3.048-2.202,5.417-5.25,5.508 c-3.017,0.09-5.52-2.172-5.676-5.131c-0.16-3.042,2.481-5.826,5.519-5.815C705.614,879,708.063,881.461,708.117,884.427z"/><path fill="#FFF" d="M519.216,877.825c-2.146-0.149-3.766-0.012-5.205-0.457 c-0.865-0.268-1.957-1.406-2.017-2.222c-0.061-0.819,1.033-2.471,1.618-2.469c3.598,0.008,7.204,0.31,10.783,0.725 c0.432,0.05,1.122,1.458,0.973,2.059c-0.2,0.812-0.993,1.905-1.717,2.072C522.035,877.904,520.304,877.777,519.216,877.825z"/><path fill="#FFF" d="M484.546,868.5c1.612,0.436,3.989,0.895,6.2,1.772 c0.803,0.319,1.627,1.604,1.7,2.508c0.119,1.492-1.218,2.395-2.546,2.194c-2.914-0.439-5.811-1.1-8.63-1.953 c-0.643-0.194-1.449-1.681-1.269-2.313c0.247-0.866,1.296-1.583,2.139-2.164C482.522,868.281,483.236,868.5,484.546,868.5z"/><path fill="#FFF" d="M587.051,436.506c-0.481-0.666-1.575-1.589-1.862-2.718 c-0.415-1.635,1.35-3.49,2.93-3.382c1.606,0.108,2.579,1.1,2.77,2.676C591.077,434.63,589.342,436.46,587.051,436.506z"/><path fill="#FFF" d="M952.45,778.956c-0.527,0.415-1.318,1.465-2.31,1.715 c-1.533,0.385-3.625-1.729-3.671-3.333c-0.043-1.484,1.174-2.54,2.798-2.426C951.012,775.034,952.458,776.544,952.45,778.956z"/><path fill="#FFF" d="M768.656,317.135c-0.625,0.449-1.555,1.549-2.679,1.81 c-1.281,0.297-2.602-1.705-2.509-3.307c0.089-1.527,1.354-2.794,2.681-2.685C767.505,313.064,768.772,314.761,768.656,317.135z"/><path fill="#FFF" d="M616.587,446.207c-0.495-0.738-1.513-1.697-1.804-2.841 c-0.323-1.267,1.375-2.723,2.726-2.568c1.594,0.184,2.602,1.093,2.526,2.796C619.961,445.276,618.961,446.1,616.587,446.207z"/><path fill="#FFF" d="M601.718,430.978c1.271,1.597,2.378,2.468,2.745,3.582 c0.453,1.371-1.308,3.019-2.805,2.847c-1.581-0.182-2.755-1.191-2.448-2.748C599.428,433.551,600.549,432.62,601.718,430.978z"/><path fill="#FFF" d="M814.911,351.459c-1.162-1.777-2.226-2.76-2.445-3.906 c-0.265-1.378,0.734-2.456,2.296-2.392c1.689,0.07,2.726,1.25,2.544,2.779C817.189,348.932,816.089,349.806,814.911,351.459z"/><path fill="#FFF" d="M568.959,819.244c1.228,1.76,2.294,2.706,2.578,3.846 c0.346,1.393-0.653,2.493-2.152,2.511c-1.665,0.021-2.758-1.106-2.595-2.68C566.894,821.908,567.885,820.985,568.959,819.244z"/><path fill="#FFF" d="M602.383,446.989c0.027,1.595-1.045,2.667-2.632,2.631 c-1.59-0.034-2.625-1.144-2.527-2.738c0.092-1.51,0.959-2.3,2.422-2.419C601.224,444.335,602.357,445.41,602.383,446.989z"/><path fill="#FFF" d="M557.147,821.151c0.014,2.305-0.826,3.11-2.316,3.106 c-1.62-0.003-2.691-0.822-2.72-2.537c-0.024-1.48,0.833-2.634,2.277-2.343C555.514,819.606,556.468,820.688,557.147,821.151z"/><path fill="#FFF" d="M989.734,769.966c-1.092-1.874-2.103-2.896-2.234-4.02 c-0.159-1.37,0.948-2.275,2.453-2.199c1.775,0.091,2.559,1.321,2.239,2.836C991.989,767.55,990.962,768.342,989.734,769.966z"/><path fill="#FFF" d="M221.812,568.017c-1.691,1.072-2.574,1.985-3.603,2.198 c-1.417,0.292-2.713-1.252-2.485-2.672c0.239-1.491,1.28-2.35,2.678-1.962C219.403,565.857,220.211,566.831,221.812,568.017z"/><path fill="#FFF" d="M265.623,339.845c1.272,1.651,2.362,2.528,2.608,3.601 c0.131,0.569-1.067,1.83-1.905,2.148c-1.387,0.525-3.005-0.731-2.788-2.145C263.692,342.447,264.589,341.56,265.623,339.845z"/><path fill="#FFF" d="M738.122,310.527c1.213,1.441,2.356,2.214,2.561,3.183 c0.305,1.451-0.874,2.269-2.309,2.373c-1.499,0.107-2.651-0.646-2.432-2.154C736.087,312.938,737.089,312.07,738.122,310.527z"/><path fill="#FFF" d="M214.052,581.416c-1.576,1.215-2.418,2.341-3.366,2.438 c-0.712,0.073-1.981-1.041-2.25-1.87c-0.445-1.373,0.479-2.68,1.932-2.619C211.364,579.407,212.32,580.403,214.052,581.416z"/><path fill="#FFF" d="M256.989,346.24c1.176,1.556,2.201,2.366,2.431,3.359 c0.28,1.208-0.617,2.126-1.99,2.194c-1.537,0.076-2.598-0.671-2.384-2.226C255.171,348.654,256.017,347.841,256.989,346.24z"/><path fill="#FFF" d="M329.082,353.366c0.412,0.463,1.4,1.104,1.653,1.963 c0.417,1.415-0.41,2.673-1.915,2.571c-0.841-0.056-2.042-0.991-2.319-1.794C326.028,354.746,326.838,353.687,329.082,353.366z"/></svg>