<svg id="SvgjsSvg1001" width="288" height="288" xmlns="http://www.w3.org/2000/svg" version="1.1" xmlns:xlink="http://www.w3.org/1999/xlink" xmlns:svgjs="http://svgjs.com/svgjs"><defs id="SvgjsDefs1002"></defs><g id="SvgjsG1008"><svg xmlns="http://www.w3.org/2000/svg" xmlns:svgjs="http://svgjs.com/svgjs" xmlns:xlink="http://www.w3.org/1999/xlink" width="288" height="288"><svg xmlns="http://www.w3.org/2000/svg" width="288" height="288" viewBox="0 0 24 24"><path fill="none" d="M0 0h24v24H0V0z"></path><path fill="#da6864" d="M15.32 3H8.68c-.26 0-.52.11-.7.29L3.29 7.98c-.18.18-.29.44-.29.7v6.63c0 .27.11.52.29.71l4.68 4.68c.19.19.45.3.71.3h6.63c.27 0 .52-.11.71-.29l4.68-4.68c.19-.19.29-.44.29-.71V8.68c0-.27-.11-.52-.29-.71l-4.68-4.68c-.18-.18-.44-.29-.7-.29zM12 17.3c-.72 0-1.3-.58-1.3-1.3s.58-1.3 1.3-1.3 1.3.58 1.3 1.3-.58 1.3-1.3 1.3zm0-4.3c-.55 0-1-.45-1-1V8c0-.55.45-1 1-1s1 .45 1 1v4c0 .55-.45 1-1 1z" class="color000 svgShape colorb92626"></path></svg></svg></g></svg>