<svg id="SvgjsSvg1001" width="288" height="288" xmlns="http://www.w3.org/2000/svg" version="1.1" xmlnsXlink="http://www.w3.org/1999/xlink" xmlnsSvgJs="http://svgjs.com/svgjs"><defs id="SvgjsDefs1002"></defs><g id="SvgjsG1008"><svg xmlns="http://www.w3.org/2000/svg" viewBox="0 0 32 32" width="288" height="288"><path d="M27,21.16V12.4l.46-.21a1,1,0,0,0,0-1.82L15.94,5.09a1,1,0,0,0-.84,0L3.58,10.37a1,1,0,0,0,0,1.82l4.19,1.92L7,20.28a1,1,0,0,0,1.64.88Q8.8,21,9,20.83a2.67,2.67,0,0,1,2.08-1,5.54,5.54,0,0,1,3.79,1.3,1,1,0,0,0,1.3,0,5.37,5.37,0,0,1,3.16-1.3,3.22,3.22,0,0,1,2.79,1.06l.25.24a1,1,0,0,0,.65.24,1,1,0,0,0,.47-.12,1,1,0,0,0,.52-1l-.76-6.15L25,13.32v7.84a2.91,2.91,0,0,0-2,2.76V27a1,1,0,0,0,1,1h4a1,1,0,0,0,1-1V23.92A2.91,2.91,0,0,0,27,21.16Zm-5.27-2.91a5.56,5.56,0,0,0-2.54-.38,7.18,7.18,0,0,0-3.69,1.28,7.35,7.35,0,0,0-4.56-1.28,5.57,5.57,0,0,0-1.66.34L9.68,15l5.42,2.49a1,1,0,0,0,.84,0L21.32,15Zm-6.21-2.79L6.4,11.28,15.52,7.1l9.12,4.18ZM27,26H25V23.92a.92.92,0,0,1,.92-.92h.16a.92.92,0,0,1,.92.92Z" fill="#000000" class="color000 svgShape"></path></svg></g></svg>