<svg xmlns="http://www.w3.org/2000/svg" version="1.0" viewBox="0 0 1133.858 1133.858"><path fill="#55ab67" d="M561.34,956.284h-10.647v-10.648c0-1.365-1.108-2.474-2.474-2.474c-1.367,0-2.476,1.109-2.476,2.474v10.648 h-10.647c-1.366,0-2.476,1.108-2.476,2.476c0,1.366,1.109,2.474,2.476,2.474h10.647v10.646c0,1.368,1.108,2.476,2.476,2.476 c1.365,0,2.474-1.108,2.474-2.476v-10.646h10.647c1.366,0,2.476-1.108,2.476-2.474C563.815,957.392,562.706,956.284,561.34,956.284 z"/><path fill="#55ab67" d="M469.095,421.309h-10.646v-10.646c0-1.366-1.109-2.474-2.475-2.474c-1.366,0-2.476,1.108-2.476,2.474 v10.646h-10.646c-1.365,0-2.475,1.109-2.475,2.476c0,1.367,1.109,2.475,2.475,2.475h10.646v10.647c0,1.367,1.109,2.475,2.476,2.475 c1.365,0,2.475-1.108,2.475-2.475v-10.647h10.646c1.366,0,2.476-1.108,2.476-2.475C471.57,422.418,470.461,421.309,469.095,421.309 z"/><path fill="#55ab67" d="M323.02,180.337h-10.646V169.69c0-1.366-1.109-2.474-2.475-2.474c-1.366,0-2.476,1.108-2.476,2.474v10.646 h-10.646c-1.365,0-2.475,1.109-2.475,2.476c0,1.367,1.109,2.475,2.475,2.475h10.646v10.647c0,1.367,1.109,2.475,2.476,2.475 c1.365,0,2.475-1.108,2.475-2.475v-10.647h10.646c1.366,0,2.476-1.108,2.476-2.475C325.496,181.446,324.386,180.337,323.02,180.337 z"/><path fill="#55ab67" d="M828.276,123.836H817.63V113.19c0-1.367-1.108-2.475-2.475-2.475s-2.476,1.108-2.476,2.475v10.646h-10.646 c-1.365,0-2.474,1.109-2.474,2.476c0,1.367,1.108,2.475,2.474,2.475h10.646v10.647c0,1.367,1.109,2.475,2.476,2.475 s2.475-1.107,2.475-2.475v-10.647h10.646c1.366,0,2.476-1.107,2.476-2.475C830.752,124.946,829.643,123.836,828.276,123.836z"/><path fill="#55ab67" d="M899.304,596.748h-10.646v-10.646c0-1.367-1.109-2.474-2.475-2.474c-1.366,0-2.476,1.107-2.476,2.474 v10.646h-10.646c-1.365,0-2.475,1.109-2.475,2.476s1.109,2.474,2.475,2.474h10.646v10.647c0,1.367,1.109,2.475,2.476,2.475 c1.365,0,2.475-1.107,2.475-2.475v-10.647h10.646c1.366,0,2.476-1.107,2.476-2.474S900.67,596.748,899.304,596.748z"/><path fill="#55ab67" d="M944.056,607.431h-10.646v-10.646c0-1.367-1.109-2.475-2.475-2.475c-1.366,0-2.476,1.108-2.476,2.475 v10.646h-10.646c-1.365,0-2.475,1.109-2.475,2.476c0,1.366,1.109,2.475,2.475,2.475h10.646v10.647c0,1.366,1.109,2.474,2.476,2.474 c1.365,0,2.475-1.108,2.475-2.474v-10.647h10.646c1.366,0,2.476-1.108,2.476-2.475C946.531,608.54,945.422,607.431,944.056,607.431 z"/><path fill="#55ab67" d="M445.15,627.731h-10.648v-10.646c0-1.366-1.107-2.476-2.475-2.476s-2.474,1.11-2.474,2.476v10.646h-10.649 c-1.365,0-2.475,1.109-2.475,2.476c0,1.368,1.109,2.474,2.475,2.474h10.649v10.646c0,1.369,1.106,2.476,2.474,2.476 s2.475-1.106,2.475-2.476v-10.646h10.648c1.366,0,2.475-1.106,2.475-2.474C447.625,628.84,446.517,627.731,445.15,627.731z"/><path fill="#55ab67" d="M284.841,425.611h-5.006v-5.005c0-0.642-0.521-1.164-1.164-1.164c-0.643,0-1.163,0.522-1.163,1.164v5.005 h-5.007c-0.642,0-1.163,0.521-1.163,1.164c0,0.644,0.521,1.164,1.163,1.164h5.007v5.005c0,0.644,0.52,1.164,1.163,1.164 c0.643,0,1.164-0.52,1.164-1.164v-5.005h5.006c0.643,0,1.164-0.52,1.164-1.164C286.004,426.133,285.483,425.611,284.841,425.611z"/><path fill="#55ab67" d="M383.106,232.204h-5.006v-5.005c0-0.642-0.521-1.164-1.164-1.164c-0.643,0-1.163,0.522-1.163,1.164v5.005 h-5.007c-0.642,0-1.163,0.521-1.163,1.164c0,0.644,0.521,1.164,1.163,1.164h5.007v5.005c0,0.644,0.52,1.164,1.163,1.164 c0.643,0,1.164-0.52,1.164-1.164v-5.005h5.006c0.643,0,1.163-0.52,1.163-1.164C384.27,232.725,383.749,232.204,383.106,232.204z"/><path fill="#55ab67" d="M381.046,369.168h-10.648v-10.646c0-1.366-1.107-2.476-2.475-2.476s-2.474,1.11-2.474,2.476v10.646H354.8 c-1.365,0-2.475,1.109-2.475,2.476c0,1.368,1.109,2.474,2.475,2.474h10.649v10.646c0,1.369,1.106,2.476,2.474,2.476 s2.475-1.106,2.475-2.476v-10.646h10.648c1.366,0,2.475-1.106,2.475-2.474C383.521,370.277,382.412,369.168,381.046,369.168z"/><path fill="#ebeff0" d="M609.757,381.169c-10.759,19.338-31.421,46.223-33.659,51.287c-0.07,0.163-0.152,0.34-0.258,0.539 c-15.788,9.352-30.202,16.15-30.202,16.15s-9.692-20.229-20.862-45.954c-15.165-34.926-33.049-79.978-33.049-98.201 c0-31.645,41.02-154.704,53.911-172.284c12.893-17.58,30.473,24.612,31.645,30.472c1.172,5.86-15.236,59.772-8.204,90.244 c3.047,13.208,9.621,37.07,17.145,61.459C594.006,340.137,602.808,365.967,609.757,381.169z"/><path fill="#002600" d="M609.757,374.146c-10.759,19.338-31.421,53.246-33.659,58.31c-0.07,0.163-0.152,0.34-0.258,0.539 c-15.788,9.352-30.202,16.15-30.202,16.15s-9.692-20.229-20.862-45.954c11.498-24.05,49.119-72.652,61.447-88.311 C594.006,340.137,602.808,358.945,609.757,374.146z"/><polygon fill="#ebeff0" points="971.725 648.211 985.55 664.551 941.559 703.515 930.247 675.863"/><path fill="#ebeff0" d="M747.542,1034.084c4.223-1.257,30.618,7.542,28.104,0c-2.514-7.541-44.343-79.186-44.343-79.186 l-22.273,11.313L747.542,1034.084z"/><path fill="#807970" d="M687.807,370.404c0,0,15.235,23.439,32.815,21.096s45.708-29.3,41.021-33.988 c-4.688-4.688-39.849-11.577-52.74-6.375C696.011,356.34,687.807,370.404,687.807,370.404z"/><path fill="#ebeff0" d="M834.312,464.158c0,0-54.291,26.901-101.507,32.898c-9.493,1.204-17.674,5.718-25.068,8.122 c-22.338,7.243-32.863,13.242-37.81,17.358c-4.159,3.468-4.383,5.602-4.383,6.011v-35.089c0-4.688,5.86-89.072,5.86-89.072 s19.771,2.133,43.364,3.985c18.036,1.418,38.313,2.671,53.699,2.66c6.646,0,12.377-0.234,16.62-0.785 c26.956-3.516,69.147-63.288,79.695-67.976s30.472,14.708,36.332,9.118C906.976,345.786,834.312,464.158,834.312,464.158z"/><path fill="#55ab67" d="M747.537,964.95c-7.993,17.605-67.179,15.085-67.179,15.085s-22.866-22.62-104.565-120.658 c-22.607-27.141-39.719-59.994-52.635-93.324c-14.639-37.74-23.885-76.075-29.674-107.414c-7.572-40.96-9.225-69.956-9.225-69.956 l214.58,36.085c0,0-31.291-5.462-31.291,61.154c0,12.072,2.883,28.352,7.57,47.021c12.165,48.496,36.426,113.121,53.619,162.051 C741.467,931.209,750.313,958.822,747.537,964.95z"/><path fill="#3c9351" d="M728.738,894.994c-91.756-12.377-159.86-71.549-205.58-128.942c-14.639-37.74-23.885-76.075-29.674-107.414 c33.976,9.248,78.862,21.494,94.932,26.006c7.992,2.25,44.523,21.835,86.703,48.299 C687.284,781.439,711.545,846.063,728.738,894.994z"/><path fill="#55ab67" d="M957.113,716.089c-4.244,16.339-170.104,140.85-201.549,153.343 c-31.444,12.482-286.166-87.641-271.305-280.75c12.728-165.345,161.735-23.101,204.313,21.225 c7.15,7.441,11.299,12.118,11.299,12.118s4.44,46.143-0.353,53.841c-4.782,7.688-15.458,4.173-14.016,10.056 c7.183,12.564,62.548,22.62,70.061,30.167c7.513,7.536,127.385-69.136,164.854-64.107c0,0,6.07,7.077,13.29,16.712 C945.24,684.095,959.727,706.033,957.113,716.089z"/><path fill="#3c9351" d="M933.708,668.694c-6.048,8.955-17.697,14.204-33.285,21.904c-29.826,14.732-146.968,80.176-152.371,68.456 c-5.402-11.72-64.916-21.096-95.001-33.26c-30.098-12.167-0.387-32.372-14.451-50.208c-14.063-17.839-63.287-57.171-46.88-45.381 c10.923,7.852,63.17-8.497,96.854-20.299c7.15,7.441,11.299,12.118,11.299,12.118s4.44,46.143-0.353,53.841 c-4.782,7.688-15.458,4.173-14.016,10.056c7.183,12.564,62.548,22.62,70.061,30.167c7.513,7.536,127.385-69.136,164.854-64.107 C920.418,651.982,926.488,659.059,933.708,668.694z"/><polygon fill="#002600" points="935.098 283.805 876.498 370.475 670.238 206.536 607.361 300.084 482.707 41.073 766.483 63.341 708.974 148.897"/><path fill="#002600" d="M607.361,370.472c0,0-118.638,79.627-123.1,218.213c11.72,50.396,197.685,68.856,211.749,57.137 c14.063-11.72-14.064-125.681-8.204-134.333c5.86-8.65,36.05-102.435,36.05-102.435l-52.458-4.663 C671.398,404.392,613.644,385.776,607.361,370.472z"/><path fill="#ebeff0" d="M710.074,278.988c0,0-77.28-5.801-80.797,56.314c-1.012,21.274,15.703,40.777,15.703,40.777l-7.652,15.585 l-19.841-10.713c0,0-28.128,33.988,9.375,42.191c21.875,4.784,44.536-18.751,44.536-18.751l-17.344-6.209l5.418-14.887 c0,0,20.714,16.338,50.602-5.86c7.35-5.458,3.517,7.032,21.096-4.688c17.58-11.72-5.171-19.123-8.687-17.437 c-3.516,1.687,23.923-7.175,25.095-27.099C748.75,308.288,710.074,278.988,710.074,278.988z"/><path fill="#807970" d="M781.36,289.32c17.557,34.961,5.403,62.456-18.704,67.471c-5.79,1.219-12.26,1.126-19.174-0.457 c-9.235-2.109-81.454-45.708-55.67-110.167c15.471-25.515,33.929-35.5,51.274-37.797c31.257-4.149,58.893,16.701,58.893,16.701 S743.822,214.593,781.36,289.32z"/><path fill="#002600" d="M786.791,1073.346c-6.003,9.094-12.573,6.485-23.61,8.792c-11.022,2.308-55.006,13.888-71.454,13.526 c-16.428-0.364-42.868-1.387-54.153-16.078c-11.285-14.691-8.611-19.995-6.644-27.464c0.756-2.852,2.363-3.813,4.262-3.818 c3.112-0.05,6.98,2.378,9.198,3.15c3.579,1.229,18.811,1.158,27.48-1.369c8.669-2.541,25.681-5.725,35.687-15.019 c10.022-9.296,19.776-13.718,19.776-13.718c-0.008-0.179-11.182-24.25-0.997-20.062c10.166,4.191,14.416,6.904,17.301,6.178 c2.902-0.723,14.295-7.588,16.523,1.904c2.23,9.479,9.054,5.196,14.619-0.728c5.563-5.938,12.293-0.398,6.002,14.57 c0.588,11.846,4.575,26.191,5.132,32.834c0.132,1.575,0.082,2.704-0.258,3.285C783.905,1062.337,792.778,1064.253,786.791,1073.346 z"/><path fill="#FFF" d="M786.791,1073.346c-6.003,9.094-12.573,6.485-23.61,8.792c-11.022,2.308-55.006,13.888-71.454,13.526 c-16.428-0.364-42.868-1.387-54.153-16.078c-11.285-14.691-8.611-19.995-6.644-27.464c0.756-2.852,2.363-3.813,4.262-3.818 c5.071,12.853,14.479,26.933,31.51,29.08c32.306,4.038,83.232-9.051,94.975-14.908c5.406-2.697,15.221-4.878,24.237-6.43 c0.132,1.575,0.082,2.704-0.258,3.285C783.905,1062.337,792.778,1064.253,786.791,1073.346z"/><circle cx="753.891" cy="1050.954" r="8.548" fill="#FFF"/><path fill="#FFF" d="M694.2,1054.134c-0.237,0-0.461-0.146-0.549-0.38c-1.381-3.688-7.88-7.035-7.945-7.068 c-0.288-0.146-0.402-0.499-0.256-0.788c0.146-0.291,0.505-0.403,0.787-0.256c0.284,0.145,6.971,3.586,8.511,7.7 c0.114,0.304-0.04,0.641-0.342,0.754C694.337,1054.122,694.269,1054.134,694.2,1054.134z"/><path fill="#FFF" d="M704.711,1051.265c-0.212,0-0.416-0.115-0.521-0.317c-1.976-3.827-8.652-7.887-8.72-7.928 c-0.277-0.167-0.365-0.526-0.198-0.803c0.166-0.278,0.527-0.368,0.804-0.199c0.286,0.172,7.028,4.271,9.155,8.393 c0.149,0.287,0.036,0.641-0.251,0.79C704.895,1051.245,704.802,1051.265,704.711,1051.265z"/><path fill="#FFF" d="M715.068,1048.512c-0.235,0-0.456-0.142-0.546-0.373c-2.459-6.295-10.593-9.705-10.676-9.739 c-0.299-0.123-0.441-0.465-0.317-0.765c0.122-0.3,0.466-0.444,0.764-0.318c0.354,0.146,8.682,3.639,11.321,10.396 c0.117,0.301-0.031,0.641-0.333,0.759C715.211,1048.499,715.139,1048.512,715.068,1048.512z"/><path fill="#FFF" d="M722.902,1040.239c-0.185,0-0.365-0.087-0.479-0.249c-4.618-6.565-11.972-6.836-12.046-6.838 c-0.323-0.009-0.578-0.278-0.57-0.602c0.009-0.318,0.269-0.57,0.586-0.57c0.005,0,0.011,0,0.016,0 c0.325,0.009,8.021,0.295,12.974,7.335c0.186,0.266,0.122,0.63-0.142,0.817C723.137,1040.205,723.019,1040.239,722.902,1040.239z"/><path fill="#002600" d="M992.846,599.656c10.676-2.186,13.476,4.306,22.912,10.479c9.425,6.16,48.714,29.073,60.09,40.96 c11.359,11.874,29.332,31.293,26.924,49.661c-2.409,18.368-8.051,20.229-14.722,24.118c-2.553,1.481-4.368,1.026-5.714-0.313 c-2.237-2.166-3.255-6.618-4.278-8.73c-1.66-3.402-12.482-14.121-20.4-18.463c-7.924-4.335-22.206-14.112-35.853-14.616 c-13.66-0.513-23.685-4.283-23.685-4.283c-0.119,0.13-9.24,25.051-13.479,14.89c-4.226-10.152-5.313-15.076-7.865-16.602 c-2.564-1.541-15.474-4.743-10.339-13.029c5.127-8.282-2.728-10.079-10.851-9.825c-8.133,0.268-8.976-8.412,6.058-14.544 c7.96-8.792,15.285-21.757,19.589-26.848c1.021-1.207,1.852-1.969,2.504-2.141C987.103,609.481,982.183,601.854,992.846,599.656z"/><path fill="#FFF" d="M992.846,599.656c10.676-2.186,13.476,4.306,22.912,10.479c9.425,6.16,48.714,29.073,60.09,40.96 c11.359,11.874,29.332,31.293,26.924,49.661c-2.409,18.368-8.051,20.229-14.722,24.118c-2.553,1.481-4.368,1.026-5.714-0.313 c5.501-12.674,8.804-29.284-1.719-42.842c-19.988-25.702-65.254-52.456-77.7-56.615c-5.729-1.918-14.21-7.316-21.684-12.594 c1.021-1.207,1.852-1.969,2.504-2.141C987.103,609.481,982.183,601.854,992.846,599.656z"/><path fill="#FFF" d="M993.94,633.017c3.168-3.498,8.576-3.768,12.074-0.603c3.5,3.171,3.768,8.577,0.599,12.075 c-3.169,3.502-8.571,3.77-12.074,0.602C991.044,641.923,990.772,636.517,993.94,633.017z"/><path fill="#FFF" d="M1044.915,690.751c-0.248,0-0.477-0.157-0.558-0.404c-0.099-0.303-2.394-7.462-0.573-11.462 c0.134-0.295,0.481-0.422,0.775-0.291c0.294,0.134,0.425,0.481,0.291,0.776c-1.631,3.585,0.599,10.544,0.621,10.614 c0.1,0.307-0.068,0.637-0.376,0.738C1045.036,690.742,1044.974,690.751,1044.915,690.751z"/><path fill="#FFF" d="M1035.408,686.397c-0.264,0-0.503-0.178-0.569-0.445c-0.08-0.324-1.95-7.99-0.539-12.408 c0.1-0.308,0.43-0.476,0.737-0.38c0.308,0.099,0.479,0.428,0.38,0.737c-1.311,4.101,0.542,11.692,0.56,11.769 c0.078,0.314-0.114,0.632-0.428,0.71C1035.502,686.392,1035.454,686.397,1035.408,686.397z"/><path fill="#FFF" d="M1026.245,683.827c-0.229,0-0.447-0.135-0.541-0.36c-0.146-0.353-3.566-8.711-0.655-15.355 c0.131-0.297,0.48-0.429,0.771-0.302c0.297,0.131,0.432,0.475,0.303,0.771c-2.708,6.182,0.629,14.354,0.663,14.435 c0.124,0.299-0.017,0.643-0.315,0.767C1026.396,683.812,1026.32,683.827,1026.245,683.827z"/><path fill="#FFF" d="M1018.032,683.099c-0.156,0-0.311-0.062-0.426-0.184c-0.224-0.235-5.462-5.878-3.985-14.359 c0.055-0.321,0.361-0.542,0.678-0.476c0.317,0.055,0.532,0.358,0.476,0.678c-1.371,7.884,3.633,13.298,3.684,13.352 c0.222,0.236,0.211,0.607-0.023,0.829C1018.321,683.045,1018.176,683.099,1018.032,683.099z"/><path fill="#ebeff0" d="M853.182,291.167c-3.108,4.688,13.079,13.632,21.374,18.753c8.296,5.105-20.77-11.068-22.271-8.271 c-1.502,2.797,8.909,11.314,14.189,13.55c5.297,2.223-0.14,6.997-0.14,6.997s-4.36,3.279-4.813,10.136 c-0.447,6.842-13.994,27.364-15.722,28.45c-5.114,3.216,18.202,25.828,17.041,30.883c12.938-1.036,23.752-27.044,38.463-39.879 c1.017-5.553,6.936-38.632,2.947-47.24c-4.305-9.28-23.458-30.87-24.754-34.396c-1.286-3.513-10.194,1.593-3.588,12.412 c3.795,6.199,8.982,12.29,9.369,12.757c-1.014-0.791-25.868-20.13-28.331-17.179c-4.656,5.563,22.241,23.085,23.852,24.126 C879.231,301.432,854.949,288.487,853.182,291.167z"/><path fill="#ebeff0" d="M901.945,305.266c2.305-0.729,1.19-12.571,3.197-20.717c2.006-8.146-2.692-8.807-5.792-4.119 c-3.102,4.69-3.531,9.801-4.099,14.176C894.687,298.979,901.945,305.266,901.945,305.266z"/><path fill="#002600" d="M904.251,305.709c-0.366,0-0.726-0.171-0.954-0.491l-16.896-23.656c-0.377-0.526-0.254-1.258,0.272-1.635 c0.525-0.376,1.258-0.254,1.634,0.273l16.896,23.656c0.377,0.526,0.255,1.258-0.272,1.635 C904.725,305.638,904.487,305.709,904.251,305.709z"/><path fill="#002600" d="M768.468,411.031c-6.281,16.209-24.682,63.172-35.663,86.025c-9.105,2.941-17.674,5.718-25.068,8.122 c-22.338,7.243-32.863,13.242-37.81,17.358l7.561-58.295l37.281-55.87C732.805,409.789,753.081,411.042,768.468,411.031z"/><path fill="#002600" d="M646.748,328.661c-1.897,0-4.67-3.39-5.946-5.682c-1.564-2.809-1.831-5.198-0.771-6.908 c1.069-1.726,3.35-2.518,6.772-2.361c11.893,0.557,22.098-12.347,22.199-12.478c0.397-0.512,1.133-0.603,1.645-0.205 c0.511,0.398,0.603,1.134,0.205,1.645c-0.444,0.571-11.013,13.958-24.159,13.379c-3.029-0.14-4.701,0.52-4.92,1.966 c-0.458,3.033,3.987,8.029,5.059,8.306c0.646,0,1.13,0.521,1.13,1.169C647.961,328.14,647.396,328.661,646.748,328.661z"/><path fill="#002600" d="M716.973,371.643c-0.561,0-1.057-0.403-1.154-0.975c-0.281-1.646,0.112-3.125,1.17-4.392 c3.666-4.391,14.599-4.553,15.063-4.558c0.004,0,0.009,0,0.013,0c0.642,0,1.165,0.517,1.172,1.159 c0.007,0.647-0.513,1.178-1.16,1.185c-2.858,0.031-10.82,0.76-13.287,3.718c-0.615,0.735-0.824,1.528-0.66,2.493 c0.11,0.638-0.318,1.243-0.957,1.353C717.104,371.638,717.038,371.643,716.973,371.643z"/><path fill="#002600" d="M650.811,383.185c-0.287,0-0.575-0.105-0.801-0.317c-24.367-22.841-22.009-46.691-21.897-47.696 c0.073-0.641,0.646-1.107,1.294-1.033c0.643,0.071,1.106,0.65,1.036,1.293c-0.025,0.234-2.295,23.731,21.17,45.727 c0.473,0.442,0.496,1.184,0.054,1.656C651.436,383.06,651.123,383.185,650.811,383.185z"/><path fill="#002600" d="M492.931,293.881c-0.045,0-0.09-0.002-0.136-0.008c-0.643-0.074-1.104-0.655-1.029-1.298 c1.131-9.832,8.653-38.002,8.974-39.197c0.167-0.625,0.813-0.995,1.436-0.828c0.625,0.167,0.996,0.81,0.828,1.435 c-0.077,0.291-7.799,29.197-8.91,38.858C494.024,293.441,493.518,293.881,492.931,293.881z"/><path fill="#002600" d="M861.522,371.643c-0.385,0-0.762-0.189-0.985-0.537c-10.837-16.794-0.514-38.378-0.068-39.289 c0.282-0.583,0.985-0.823,1.566-0.539c0.582,0.284,0.823,0.985,0.539,1.567c-0.103,0.211-10.181,21.317-0.068,36.99 c0.352,0.543,0.194,1.269-0.35,1.62C861.961,371.583,861.74,371.643,861.522,371.643z"/><path fill="#002600" d="M853.849,378.042c-0.474,0-0.919-0.289-1.097-0.759c-6.01-15.924,2.644-33.049,3.016-33.771 c0.295-0.573,1.001-0.802,1.577-0.506s0.803,1.003,0.508,1.579c-0.088,0.167-8.544,16.935-2.907,31.871 c0.229,0.605-0.077,1.282-0.683,1.51C854.127,378.017,853.986,378.042,853.849,378.042z"/><path fill="#002600" d="M636.602,683.088c-40.66,0-55.175-33.026-55.337-33.408c-0.252-0.596,0.026-1.283,0.622-1.535 c0.599-0.256,1.284,0.025,1.537,0.62c0.044,0.105,4.579,10.576,15.626,19.432c10.167,8.151,28.129,16.579,55.946,10.424 c0.628-0.138,1.257,0.259,1.397,0.892c0.14,0.632-0.26,1.258-0.892,1.397C648.654,682.425,642.365,683.088,636.602,683.088z"/><path fill="#002600" d="M747.134,784.087c-0.409,0-0.8-0.08-1.164-0.243c-1.792-0.798-2.393-3.222-1.785-7.204 c0.904-5.928,4.917-12.28,11.384-18.591c-0.553-1.819-1.409-3.621-2.635-5.351c-12.114-17.096-123.077-60.573-124.197-61.01 c-0.602-0.236-0.9-0.916-0.665-1.518c0.236-0.604,0.917-0.902,1.518-0.666c4.598,1.795,112.742,44.175,125.258,61.838 c1.136,1.604,1.988,3.259,2.601,4.935c13.015-11.846,34.496-23.403,60.11-31.602c38.982-12.475,89.781-41.858,100.346-51.808 c0.472-0.444,1.213-0.423,1.656,0.049s0.422,1.213-0.05,1.656c-10.693,10.072-61.968,39.768-101.237,52.334 c-25.952,8.307-47.551,19.985-60.113,31.764c1.976,8.481-1.62,17.082-5.394,21.686 C750.773,782.789,748.788,784.087,747.134,784.087z M756.155,760.634c-5.477,5.587-8.859,11.157-9.654,16.36 c-0.51,3.35,0.054,4.546,0.423,4.711c0.522,0.226,2.113-0.495,4.028-2.831C754.173,774.945,757.265,767.824,756.155,760.634z"/><path fill="#002600" d="M700.242,860.068c-0.11,0-0.223-0.015-0.333-0.048c-93.504-27.691-170.132-122.079-170.895-123.028 c-0.406-0.504-0.324-1.242,0.18-1.647c0.505-0.406,1.242-0.325,1.647,0.18c0.759,0.944,76.941,94.767,169.733,122.248 c0.62,0.184,0.974,0.836,0.791,1.457C701.215,859.738,700.748,860.068,700.242,860.068z"/><path fill="#002600" d="M720.528,961.544c-0.504,0-0.968-0.327-1.121-0.833c-4.92-16.23-54.389-105.258-54.887-106.156 c-0.315-0.566-0.111-1.279,0.454-1.594c0.567-0.317,1.28-0.11,1.594,0.455c2.043,3.674,50.089,90.147,55.082,106.616 c0.188,0.619-0.163,1.274-0.782,1.462C720.755,961.528,720.641,961.544,720.528,961.544z"/><path fill="#002600" d="M677.484,956.071c-0.371,0-0.736-0.175-0.964-0.504c-3.111-4.477-8.898-11.769-17.202-21.672 c-0.416-0.496-0.351-1.235,0.146-1.652c0.497-0.413,1.234-0.348,1.651,0.146c8.348,9.958,14.18,17.306,17.33,21.842 c0.37,0.531,0.238,1.262-0.294,1.631C677.947,956.003,677.714,956.071,677.484,956.071z"/><path fill="#002600" d="M656.454,929.852c-0.333,0-0.663-0.141-0.895-0.415c-3.797-4.481-8.167-9.574-12.993-15.136 c-0.423-0.489-0.37-1.229,0.118-1.654c0.489-0.422,1.229-0.371,1.654,0.118c4.83,5.569,9.207,10.669,13.009,15.157 c0.419,0.494,0.356,1.233-0.137,1.651C656.99,929.76,656.722,929.852,656.454,929.852z"/><path fill="#002600" d="M638.822,909.381c-0.326,0-0.651-0.136-0.884-0.402c-4.87-5.583-10.13-11.567-16.083-18.294 c-0.429-0.485-0.384-1.226,0.101-1.655c0.484-0.427,1.226-0.385,1.655,0.101c5.956,6.732,11.22,12.72,16.095,18.308 c0.424,0.488,0.374,1.228-0.114,1.654C639.37,909.286,639.096,909.381,638.822,909.381z"/><path fill="#002600" d="M617.983,885.724c-0.322,0-0.645-0.133-0.877-0.394c-4.603-5.186-9.156-10.289-13.531-15.177 c-0.432-0.482-0.391-1.224,0.092-1.655c0.48-0.431,1.225-0.39,1.654,0.092c4.378,4.891,8.934,9.996,13.539,15.185 c0.429,0.484,0.386,1.225-0.099,1.655C618.539,885.626,618.261,885.724,617.983,885.724z"/><path fill="#002600" d="M599.733,865.28c-0.321,0-0.642-0.131-0.873-0.389c-4.13-4.602-8.051-8.958-11.645-12.942 c-0.435-0.481-0.396-1.223,0.084-1.655c0.48-0.434,1.221-0.396,1.655,0.085c3.596,3.986,7.518,8.342,11.65,12.947 c0.433,0.482,0.393,1.222-0.09,1.655C600.292,865.182,600.013,865.28,599.733,865.28z"/><path fill="#002600" d="M582.009,845.61c-0.319,0-0.638-0.131-0.869-0.386c-8.952-9.895-14.737-16.232-14.738-16.233 c-0.438-0.478-0.403-1.219,0.075-1.655c0.475-0.435,1.218-0.405,1.655,0.076c0,0,5.789,6.34,14.746,16.24 c0.435,0.479,0.396,1.221-0.083,1.655C582.571,845.511,582.289,845.61,582.009,845.61z"/><path fill="#002600" d="M688.345,952.065c-0.369,0-0.732-0.174-0.961-0.499c-2.044-2.911-4.594-6.35-7.579-10.224 c-0.395-0.513-0.3-1.249,0.213-1.644c0.513-0.397,1.249-0.3,1.644,0.213c3.007,3.9,5.578,7.37,7.642,10.309 c0.372,0.529,0.243,1.26-0.286,1.632C688.812,951.996,688.577,952.065,688.345,952.065z"/><path fill="#002600" d="M672.804,931.747c-0.343,0-0.683-0.15-0.914-0.438c-1.651-2.054-3.329-4.121-5.01-6.173 c-0.411-0.501-0.336-1.24,0.164-1.649c0.502-0.412,1.239-0.336,1.649,0.164c1.685,2.059,3.367,4.131,5.022,6.192 c0.405,0.504,0.325,1.242-0.18,1.647C673.32,931.663,673.062,931.747,672.804,931.747z"/><path fill="#002600" d="M657.968,913.732c-0.336,0-0.667-0.142-0.898-0.419c-2.569-3.061-5.012-5.941-7.221-8.534 c-0.42-0.492-0.362-1.231,0.131-1.651c0.49-0.421,1.233-0.362,1.652,0.131c2.213,2.595,4.66,5.482,7.232,8.547 c0.416,0.496,0.351,1.235-0.145,1.65C658.5,913.642,658.233,913.732,657.968,913.732z"/><path fill="#002600" d="M644.953,898.437c-0.328,0-0.655-0.138-0.888-0.408c-3.064-3.555-4.946-5.704-4.947-5.705 c-0.427-0.488-0.377-1.229,0.109-1.654c0.487-0.429,1.228-0.378,1.653,0.109c0,0,1.887,2.155,4.961,5.722 c0.422,0.49,0.367,1.229-0.124,1.652C645.497,898.343,645.225,898.437,644.953,898.437z"/><path fill="#002600" d="M932.107,730.831c-0.342,0-0.681-0.149-0.913-0.437c-0.406-0.503-0.327-1.24,0.177-1.648 c12.818-10.351,16.616-13.858,17.544-14.976c0.414-0.497,1.151-0.568,1.65-0.153c0.498,0.413,0.566,1.152,0.153,1.65 c-1.47,1.771-7.316,6.776-17.876,15.304C932.626,730.746,932.366,730.831,932.107,730.831z"/><path fill="#002600" d="M909.045,749.154c-0.349,0-0.691-0.153-0.923-0.447c-0.4-0.509-0.312-1.246,0.197-1.646 c3.822-3.005,7.561-5.952,11.125-8.78c0.506-0.405,1.244-0.318,1.646,0.19c0.402,0.507,0.316,1.244-0.19,1.646 c-3.567,2.831-7.308,5.78-11.133,8.787C909.553,749.073,909.298,749.154,909.045,749.154z"/><path fill="#002600" d="M889.777,764.216c-0.349,0-0.694-0.156-0.926-0.452c-0.397-0.511-0.306-1.248,0.205-1.645l5.998-4.673 c0.511-0.399,1.248-0.308,1.645,0.203c0.398,0.51,0.309,1.247-0.202,1.645l-6.001,4.675 C890.282,764.136,890.029,764.216,889.777,764.216z"/><path fill="#002600" d="M864.381,783.89c-0.352,0-0.698-0.156-0.93-0.455c-0.395-0.513-0.3-1.249,0.212-1.645 c5.031-3.881,10.748-8.302,16.788-12.986c0.513-0.397,1.248-0.303,1.645,0.208c0.396,0.511,0.303,1.248-0.207,1.645 c-6.042,4.687-11.762,9.107-16.793,12.991C864.882,783.81,864.63,783.89,864.381,783.89z"/><path fill="#002600" d="M845.067,798.749c-0.353,0-0.7-0.158-0.932-0.459c-0.394-0.514-0.296-1.25,0.218-1.644 c0,0,3.185-2.44,8.443-6.483c0.513-0.395,1.249-0.298,1.644,0.215c0.394,0.513,0.299,1.249-0.215,1.644 c-5.262,4.045-8.446,6.486-8.446,6.486C845.566,798.669,845.316,798.749,845.067,798.749z"/><path fill="#002600" d="M911.392,735.997c-0.347,0-0.688-0.152-0.92-0.444c-0.401-0.508-0.315-1.245,0.191-1.646 c13.155-10.412,21.072-17.188,23.535-20.138c0.413-0.497,1.153-0.564,1.65-0.149c0.496,0.415,0.563,1.154,0.148,1.65 c-2.601,3.117-10.412,9.814-23.878,20.475C911.902,735.915,911.646,735.997,911.392,735.997z"/><path fill="#002600" d="M890.821,751.981c-0.353,0-0.7-0.158-0.932-0.459c-0.394-0.514-0.297-1.25,0.218-1.644 c4.654-3.564,9.143-7.029,13.364-10.323c0.51-0.399,1.246-0.308,1.645,0.202c0.398,0.511,0.309,1.247-0.202,1.645 c-4.227,3.298-8.722,6.769-13.381,10.337C891.32,751.902,891.069,751.981,890.821,751.981z"/><path fill="#002600" d="M865.713,771.019c-0.356,0-0.707-0.161-0.938-0.468c-0.389-0.518-0.284-1.252,0.233-1.642 c6.902-5.189,13.409-10.11,19.338-14.628c0.518-0.395,1.252-0.293,1.643,0.221c0.393,0.515,0.293,1.251-0.221,1.643 c-5.934,4.522-12.445,9.447-19.353,14.64C866.205,770.942,865.958,771.019,865.713,771.019z"/><path fill="#002600" d="M842.618,788.274c-0.357,0-0.712-0.164-0.941-0.473c-0.386-0.52-0.278-1.253,0.241-1.64 c5.07-3.769,10.342-7.698,15.684-11.697c0.52-0.39,1.254-0.28,1.642,0.235c0.388,0.519,0.281,1.253-0.236,1.642 c-5.344,3.999-10.617,7.93-15.69,11.701C843.106,788.199,842.861,788.274,842.618,788.274z"/><path fill="#002600" d="M816.329,807.715c-0.361,0-0.716-0.165-0.945-0.477c-0.384-0.521-0.272-1.255,0.249-1.639 c5.369-3.952,11.651-8.586,18.472-13.64c0.523-0.387,1.254-0.276,1.64,0.243c0.385,0.521,0.276,1.255-0.243,1.641 c-6.823,5.054-13.107,9.69-18.479,13.645C816.813,807.641,816.57,807.715,816.329,807.715z"/><path fill="#002600" d="M797.976,821.17c-0.362,0-0.719-0.167-0.948-0.482c-0.382-0.523-0.267-1.255,0.257-1.637 c0-0.001,3.421-2.495,9.187-6.722c0.52-0.383,1.254-0.27,1.638,0.253c0.383,0.522,0.271,1.254-0.253,1.638 c-5.769,4.229-9.191,6.725-9.191,6.725C798.456,821.097,798.214,821.17,797.976,821.17z"/><path fill="#544d45" d="M762.656,356.791c-5.79,1.219-12.26,1.126-19.174-0.457c-9.235-2.109-81.454-45.708-55.67-110.167 c15.471-25.515,33.929-35.5,51.274-37.797c-35.853,14.229-32.934,44.993-32.934,42.919c0-2.368-0.48-11.346,33.977-27.894 c-36.344,45.649,1.348,78.172,17.557,85.579C778.899,318.655,775.781,346.969,762.656,356.791z"/><path fill="#002600" d="M445.188,852.523c-12.074,6.706-27.74,12.072-27.74,12.072s3.582,4.923,14.768,4.923 c11.188,0,15.211,17.008,12.527,15.667c-2.682-1.342-12.969,0-22.371,2.683c-9.391,2.682-15.654,8.048-24.613,13.869 c-8.947,5.822-29.967,40.268-29.967,40.268s0,0,14.313,4.922c14.313,4.923,29.524-2.24,42.95-7.163s28.637-20.576,29.08-11.187 c0.455,9.402-1.008,15.223-8.047,19.247c8.502-3.582,25.953-20.588,22.816,2.129c-8.049,39.713-60.402,42.162-81.434,42.162 c-21.032,0-40.784-14.313-40.784-14.313s-16.935,7.605-41.092,24.158s-72.485,22.373-72.485,22.373s-46.088,52.795-97.542,21.02 c-5.365,0.899-25.498,23.715-27.738,32.219c-2.24,8.503,10.744,17.45-4.48,18.348c-15.21,0.887-17.438-10.288-21.02-23.714 c-3.582-13.426,20.133-34.002,20.133-34.002s-15.21,0.442-24.158,3.126c-8.958,2.682-16.109,19.247-21.031,8.946 c-4.923-10.287,8.491-22.816,20.133-29.978c11.63-7.151,36.243-14.756,38.999-3.569c2.769,11.174,15.581,3.569,15.581,3.569 s2.239,1.796-1.785-18.337c-4.024-20.134,14.312-39.381,14.312-39.381s-5.808-2.683-16.995,1.341 c-11.187,4.037-32.219-7.15-29.536-7.15c2.683,0,22.815-10.289,16.109-9.845c-6.707,0.442-20.133-4.922-25.056-10.744 c-3.04-3.581,3.962-3.593,9.783-3.088c-5.132-0.984-11.777-3.347-17.131-12.873c-7.384-13.119,8.208-3.274,8.208-3.274 s8.196,4.098-9.845-11.494c-18.054-15.58-4.11-33.634-4.11-33.634s2.461,14.768,35.283,45.128 c32.821,30.348,52.512,29.536,111.583,32.81c59.071,3.286,77.113-36.095,95.167-50.039c18.054-13.956,28.711-50.875,28.711-50.875 s-27.074,13.955-38.15,19.505c-11.076,5.552-15.174-3.088-9.427-12.934c5.735-9.845,18.866-50.051,18.866-50.051 c0.923-2.806,35.936-7.876,41.756-2.067c5.821,5.82,29.081,22.373,43.405,24.169c14.313,1.785,44.734-15.211,57.264-18.349 c12.527-3.126,12.084,11.187,8.871,21.032C466.07,839.994,457.271,845.804,445.188,852.523z"/><path fill="#002600" d="M103.84,933.943c-1.354-0.296-3.077-0.469-5.021-0.85c3.618,0.32,6.769,0.85,6.769,0.85"/><path fill="#FFF" d="M106.485,1035.681c-0.07,0-0.141-0.011-0.21-0.037c-0.317-0.115-0.482-0.463-0.37-0.78 c0.078-0.221,2.056-5.42,13.936-6.73c10.36-1.142,11.819-5.838,14.468-14.365c0.215-0.694,0.438-1.412,0.673-2.151 c0.104-0.325,0.449-0.501,0.773-0.4c0.323,0.104,0.503,0.449,0.4,0.773c-0.234,0.738-0.457,1.452-0.671,2.144 c-2.618,8.426-4.347,13.993-15.509,15.223c-11.014,1.214-12.895,5.877-12.912,5.924 C106.971,1035.527,106.735,1035.681,106.485,1035.681z"/><path fill="#FFF" d="M233.108,1024.946c-0.118,0-0.235-0.034-0.341-0.104c-0.283-0.188-0.359-0.571-0.17-0.854 c6.975-10.465,7.5-48.942,7.504-49.329c0.004-0.342,0.278-0.627,0.623-0.608c0.34,0.004,0.612,0.282,0.608,0.623 c-0.019,1.597-0.534,39.231-7.711,49.998C233.502,1024.85,233.307,1024.946,233.108,1024.946z"/><path fill="#FFF" d="M407.568,954.729c-29.865,0-47.201-18.362-47.393-18.572c-0.231-0.249-0.216-0.638,0.034-0.869 c0.248-0.231,0.638-0.217,0.869,0.035c0.213,0.229,21.701,22.958,58.066,17.259c22.4-3.508,28.176-5.261,29.643-5.972 c-0.127-0.135-0.191-0.326-0.158-0.523c0.057-0.334,0.365-0.566,0.707-0.506c0.66,0.109,1.068,0.477,1.066,0.959 c-0.004,0.836-0.012,2.393-31.066,7.258C415.225,954.442,411.299,954.729,407.568,954.729z"/><path fill="#FFF" d="M344.871,855.063c-0.069,0-0.139-0.012-0.208-0.036c-0.32-0.114-0.487-0.466-0.372-0.786 c0.799-2.236,6.55-14.173,8.294-17.777c7.516-15.543,7.531-15.524,8.145-15.429c0.295,0.052,0.512,0.313,0.512,0.612 c0,0.162-0.063,0.309-0.164,0.418c-0.894,1.532-14.339,28.985-15.628,32.589C345.36,854.906,345.123,855.063,344.871,855.063z"/><path fill="#FFF" d="M92.117,903.192c-0.151,0-0.303-0.055-0.421-0.167c-6.297-5.927-14.23-20.646-14.565-21.27 c-0.161-0.299-0.048-0.672,0.251-0.833c0.3-0.16,0.673-0.048,0.833,0.251c0.081,0.151,8.173,15.166,14.324,20.955 c0.248,0.233,0.259,0.623,0.027,0.87C92.444,903.127,92.28,903.192,92.117,903.192z"/><path fill="#FFF" d="M112.487,922.452c-0.071,0-0.144-0.012-0.214-0.039c-7.762-2.89-13.716-11.711-13.966-12.086 c-0.188-0.283-0.112-0.665,0.17-0.854c0.283-0.19,0.665-0.113,0.854,0.171c0.059,0.087,5.987,8.866,13.372,11.615 c0.318,0.119,0.481,0.474,0.362,0.792C112.972,922.299,112.737,922.452,112.487,922.452z"/><path fill="#FFF" d="M97.302,914.675c-0.108,0-0.217-0.028-0.316-0.088c-3.754-2.252-12.211-12.662-12.569-13.104 c-0.214-0.263-0.173-0.651,0.09-0.865c0.265-0.215,0.651-0.173,0.866,0.091c0.086,0.105,8.677,10.682,12.245,12.823 c0.292,0.174,0.386,0.553,0.211,0.844C97.714,914.568,97.511,914.675,97.302,914.675z"/><path fill="#FFF" d="M97.303,928.377c-0.042,0-0.083-0.003-0.126-0.013c-9.104-1.896-12.702-10.378-12.851-10.738 c-0.13-0.314,0.019-0.673,0.333-0.803c0.316-0.126,0.673,0.019,0.804,0.333c0.035,0.083,3.512,8.242,11.965,10.004 c0.333,0.069,0.546,0.396,0.477,0.727C97.844,928.178,97.588,928.377,97.303,928.377z"/><path fill="#FFF" d="M111.24,943.885c-7.198,0-13.905-4.257-14.271-4.494c-0.286-0.184-0.368-0.565-0.184-0.85 c0.185-0.286,0.565-0.372,0.851-0.184c0.112,0.072,11.295,7.163,19.762,2.929c0.304-0.153,0.673-0.029,0.826,0.275 s0.029,0.674-0.275,0.826C115.783,943.47,113.487,943.885,111.24,943.885z"/><path fill="#FFF" d="M119.815,962.463c-4.63,0-7.473-1.835-7.668-1.966c-0.283-0.189-0.358-0.569-0.171-0.853 c0.188-0.282,0.569-0.359,0.853-0.173c0.306,0.202,7.607,4.864,18.22-1.859c0.288-0.178,0.667-0.095,0.849,0.191 c0.182,0.287,0.097,0.667-0.19,0.85C127.078,961.585,123.018,962.463,119.815,962.463z"/><path fill="#FFF" d="M222.12,1024.946c-0.152,0-0.305-0.057-0.425-0.17c-0.246-0.235-0.255-0.625-0.021-0.87 c9.364-9.822,10.807-27.492,10.821-27.67c0.026-0.337,0.323-0.591,0.66-0.566c0.339,0.025,0.593,0.321,0.567,0.66 c-0.056,0.742-1.487,18.282-11.157,28.425C222.444,1024.882,222.282,1024.946,222.12,1024.946z"/><path fill="#FFF" d="M175.452,1051.343c-0.321,0-0.592-0.25-0.613-0.576c-0.022-0.339,0.235-0.631,0.574-0.654 c0.169-0.011,17.009-1.234,30.394-12.086c0.265-0.215,0.652-0.173,0.866,0.091c0.214,0.263,0.173,0.651-0.09,0.865 c-13.698,11.105-30.917,12.348-31.088,12.358C175.479,1051.343,175.465,1051.343,175.452,1051.343z"/><path fill="#FFF" d="M199.898,1037.269c-0.188,0-0.372-0.085-0.494-0.247c-0.204-0.271-0.148-0.657,0.124-0.862 c0.312-0.233,1.074-0.705,2.228-1.42c4.295-2.658,14.354-8.886,17.259-13.243c0.188-0.284,0.569-0.36,0.853-0.171 c0.283,0.189,0.359,0.571,0.171,0.854c-3.053,4.579-12.902,10.677-17.635,13.607c-1.044,0.646-1.87,1.157-2.138,1.359 C200.156,1037.229,200.026,1037.269,199.898,1037.269z"/><path fill="#FFF" d="M105.588,1074.678c-0.009,0-0.02,0-0.029-0.001c-0.339-0.016-0.602-0.303-0.586-0.643 c0.14-3.007,6.268-15.169,6.966-16.547c0.153-0.304,0.524-0.422,0.827-0.27c0.304,0.154,0.424,0.524,0.271,0.828 c-1.864,3.675-6.727,13.725-6.834,16.047C106.187,1074.42,105.915,1074.678,105.588,1074.678z"/><path fill="#FFF" d="M72.487,1039.121c-0.07,0-0.141-0.012-0.21-0.038c-0.319-0.115-0.484-0.469-0.368-0.788 c1.574-4.329,18.271-5.472,20.17-5.588c0.354-0.025,0.631,0.237,0.652,0.577c0.021,0.339-0.237,0.631-0.576,0.651 c-6.861,0.421-18.111,2.09-19.089,4.781C72.975,1038.966,72.738,1039.121,72.487,1039.121z"/><path fill="#FFF" d="M211.75,1036.529c-0.199,0-0.395-0.096-0.513-0.274c-0.188-0.282-0.112-0.665,0.171-0.853 c0.882-0.589,5.865-4.974,7.71-6.615c0.254-0.225,0.643-0.203,0.869,0.052c0.226,0.253,0.203,0.643-0.051,0.869 c-0.273,0.243-6.711,5.961-7.845,6.718C211.985,1036.495,211.866,1036.529,211.75,1036.529z"/><path fill="#FFF" d="M223.601,1010.921c-0.153,0-0.306-0.056-0.425-0.17c-0.245-0.234-0.254-0.624-0.02-0.87 c0.667-0.958,2.485-12.159,3.848-22.2c0.046-0.338,0.357-0.581,0.693-0.526c0.336,0.045,0.573,0.355,0.526,0.692 c-0.687,5.062-3.019,21.672-4.178,22.885C223.925,1010.858,223.763,1010.921,223.601,1010.921z"/><path fill="#FFF" d="M263.708,952.082c-0.336,0-0.61-0.27-0.616-0.607c-0.003-0.339,0.268-0.618,0.607-0.624 c0.035,0,3.552-0.091,9.246-3.097c0.3-0.157,0.673-0.043,0.832,0.257s0.043,0.673-0.257,0.832 c-5.989,3.161-9.652,3.238-9.805,3.239C263.711,952.082,263.709,952.082,263.708,952.082z"/><path fill="#FFF" d="M280.639,945.543c-0.108,0-0.217-0.027-0.315-0.087c-0.291-0.174-0.386-0.548-0.213-0.839 c0.276-0.464,1.053-1.021,2.644-2.133c2.96-2.074,7.916-5.544,9.924-9.66c0.149-0.304,0.52-0.428,0.823-0.283 c0.305,0.149,0.432,0.517,0.283,0.823c-2.148,4.401-7.266,7.985-10.324,10.127c-1,0.7-2.133,1.494-2.292,1.756 C281.052,945.438,280.848,945.543,280.639,945.543z"/><path fill="#FFF" d="M306.565,846.155c-0.145,0-0.289-0.051-0.405-0.153c-0.255-0.224-0.281-0.613-0.057-0.868 c5.61-6.403,11.294-27.323,11.351-27.533c0.088-0.33,0.43-0.522,0.754-0.434c0.329,0.087,0.523,0.425,0.435,0.753 c-0.235,0.871-5.815,21.407-11.614,28.024C306.907,846.083,306.736,846.155,306.565,846.155z"/><path fill="#FFF" d="M310.128,864.747c-3.314,0-6.577-1.053-8.762-2.8c-0.265-0.212-0.309-0.6-0.096-0.865 c0.213-0.264,0.599-0.306,0.865-0.096c3.333,2.668,10.849,3.96,15.515,0.011c0.259-0.219,0.647-0.185,0.867,0.072 c0.219,0.26,0.187,0.648-0.073,0.868C316.128,863.896,313.108,864.747,310.128,864.747z"/><path fill="#FFF" d="M309.311,862.131c-0.823,0-1.568-0.264-2.22-0.791c-2.358-1.904-2.611-6.663-2.621-6.865 c-0.016-0.339,0.246-0.627,0.586-0.643c0.313-0.055,0.627,0.244,0.644,0.584c0.002,0.044,0.236,4.412,2.165,5.967 c0.553,0.443,1.183,0.601,1.934,0.475c0.335-0.059,0.652,0.17,0.708,0.506c0.056,0.335-0.171,0.651-0.506,0.708 C309.765,862.112,309.535,862.131,309.311,862.131z"/><path fill="#FFF" d="M470.42,822.275c-9.813,0-13.426-12.019-13.463-12.142c-0.096-0.326,0.092-0.667,0.42-0.762 c0.328-0.097,0.666,0.092,0.762,0.418c0.035,0.117,3.547,11.72,12.887,11.238c0.328-0.035,0.631,0.241,0.65,0.581 c0.018,0.339-0.242,0.629-0.582,0.647C470.867,822.269,470.643,822.275,470.42,822.275z"/><path fill="#FFF" d="M357.677,945.547c-0.087,0-0.176-0.018-0.26-0.058c-4.457-2.087-7.165-4.424-8.049-6.942 c-0.632-1.802-0.046-3.027-0.021-3.078c0.15-0.304,0.519-0.429,0.824-0.28c0.302,0.149,0.428,0.513,0.283,0.817 c-0.032,0.072-1.696,4.069,7.484,8.368c0.308,0.145,0.44,0.511,0.296,0.819C358.13,945.416,357.909,945.547,357.677,945.547z"/><path fill="#FFF" d="M386.568,954.739c-0.02,0-0.041-0.001-0.061-0.002c-10.747-1.048-19.415-5.853-19.501-5.901 c-0.296-0.167-0.401-0.542-0.235-0.837c0.166-0.298,0.54-0.403,0.838-0.237c0.084,0.048,8.539,4.729,19.018,5.75 c0.338,0.034,0.586,0.334,0.553,0.673C387.148,954.501,386.881,954.739,386.568,954.739z"/><path fill="#FFF" d="M367.307,958.749c-8.816,0-12.012-6.962-12.043-7.032c-0.138-0.31,0.002-0.673,0.312-0.811 c0.308-0.14,0.673,0,0.813,0.31c0.115,0.257,2.923,6.302,10.919,6.302c0.341,0,0.616,0.275,0.616,0.615 S367.648,958.749,367.307,958.749z"/></svg>